<?xml version="1.0" encoding="UTF-8"?>
<svg version="1.1" xmlns="http://www.w3.org/2000/svg" width="220" height="215">
<path d="M0 0 C72.6 0 145.2 0 220 0 C220 70.95 220 141.9 220 215 C147.4 215 74.8 215 0 215 C0 144.05 0 73.1 0 0 Z " fill="#FDFDFE" transform="translate(0,0)"/>
<path d="M0 0 C4.02058602 -0.11686443 8.04073082 -0.18747388 12.0625 -0.25 C13.19623047 -0.28351563 14.32996094 -0.31703125 15.49804688 -0.3515625 C22.23185551 -0.43009088 26.58109665 -0.15064937 32 4 C33.41000664 6.82001327 33.24548451 8.87007255 33 12 C31.33237678 15.49406769 30.25993978 16.82670681 27 19 C26.01 19 25.02 19 24 19 C24 19.66 24 20.32 24 21 C24.886875 21.04125 25.77375 21.0825 26.6875 21.125 C31.19164237 22.31477346 32.5427637 24.09733059 35 28 C35.52918182 31.77042048 35.32273531 34.13264885 34 37.6875 C30.44630289 41.79646228 26.33434604 43.74986432 21.00390625 44.32104492 C17.66071168 44.3925343 14.34238458 44.3495441 11 44.25 C9.84371094 44.23195312 8.68742187 44.21390625 7.49609375 44.1953125 C4.66318725 44.1484876 1.83204116 44.08292012 -1 44 C-1 43.01 -1 42.02 -1 41 C1.475 40.505 1.475 40.505 4 40 C4 28.12 4 16.24 4 4 C2.68 3.67 1.36 3.34 0 3 C0 2.01 0 1.02 0 0 Z " fill="#38398F" transform="translate(70,81)"/>
<path d="M0 0 C11.22 0 22.44 0 34 0 C34 11.22 34 22.44 34 34 C22.78 34 11.56 34 0 34 C0 22.78 0 11.56 0 0 Z " fill="#2F3091" transform="translate(9,83)"/>
<path d="M0 0 C4.27081914 -0.02897435 8.54161309 -0.04678996 12.8125 -0.0625 C14.63491211 -0.07506836 14.63491211 -0.07506836 16.49414062 -0.08789062 C18.23920898 -0.09272461 18.23920898 -0.09272461 20.01953125 -0.09765625 C21.09307861 -0.10289307 22.16662598 -0.10812988 23.27270508 -0.11352539 C26 0 26 0 29 1 C29 1.66 29 2.32 29 3 C29.99 3.33 30.98 3.66 32 4 C34.47591878 7.71387818 34.53907468 10.69582561 34 15 C32.23512539 19.17996618 30.07861587 21.06265746 26 23 C25.01 23 24.02 23 23 23 C23 23.66 23 24.32 23 25 C19.7 25 16.4 25 13 25 C13 30.28 13 35.56 13 41 C14.98 41.33 16.96 41.66 19 42 C19 42.66 19 43.32 19 44 C12.73 44 6.46 44 0 44 C0 43.34 0 42.68 0 42 C1.65 41.34 3.3 40.68 5 40 C5.33 27.79 5.66 15.58 6 3 C3.03 2.505 3.03 2.505 0 2 C0 1.34 0 0.68 0 0 Z " fill="#404194" transform="translate(111,81)"/>
<path d="M0 0 C2.64 0 5.28 0 8 0 C8 16.17 8 32.34 8 49 C-8.83 49 -25.66 49 -43 49 C-43 46.36 -43 43.72 -43 41 C-28.81 41 -14.62 41 0 41 C0 27.47 0 13.94 0 0 Z " fill="#EB1A22" transform="translate(51,83)"/>
<path d="M0 0 C12.87 0 25.74 0 39 0 C39 3.96 39 7.92 39 12 C35.22471696 10.74157232 34.89332955 9.37506571 33 6 C30.51761809 3.10832435 30.51761809 3.10832435 23 3 C23.495 21.315 23.495 21.315 24 40 C25.98 40.66 27.96 41.32 30 42 C30 42.66 30 43.32 30 44 C23.07 44 16.14 44 9 44 C9 43.01 9 42.02 9 41 C11.97 40.505 11.97 40.505 15 40 C15.33 27.79 15.66 15.58 16 3 C7.6712213 3.03619984 7.6712213 3.03619984 5 5.8125 C4.05353655 7.88288879 3.39982687 9.76096952 3 12 C2.01 12 1.02 12 0 12 C0 8.04 0 4.08 0 0 Z " fill="#3C3D96" transform="translate(172,81)"/>
<path d="M0 0 C6.27 0 12.54 0 19 0 C19 0.99 19 1.98 19 3 C17.02 3.33 15.04 3.66 13 4 C13 15.88 13 27.76 13 40 C14.98 40.66 16.96 41.32 19 42 C19 42.66 19 43.32 19 44 C12.73 44 6.46 44 0 44 C0 43.34 0 42.68 0 42 C1.65 41.34 3.3 40.68 5 40 C5.02468447 35.19450253 5.04285255 30.38904182 5.05493164 25.58349609 C5.05996621 23.94807289 5.06679427 22.3126542 5.07543945 20.67724609 C5.08754335 18.32909025 5.093237 15.98099381 5.09765625 13.6328125 C5.10281754 12.89942657 5.10797882 12.16604065 5.11329651 11.41043091 C5.183156 7.57877344 5.183156 7.57877344 4 4 C1.97536745 3.34786708 1.97536745 3.34786708 0 3 C0 2.01 0 1.02 0 0 Z " fill="#4E4F99" transform="translate(150,81)"/>
<path d="M0 0 C2.64 0 5.28 0 8 0 C8 16.17 8 32.34 8 49 C-8.83 49 -25.66 49 -43 49 C-43 46.36 -43 43.72 -43 41 C-28.81 41 -14.62 41 0 41 C0 27.47 0 13.94 0 0 Z M2 2 C1.67 15.53 1.34 29.06 1 43 C-12.86 43 -26.72 43 -41 43 C-41 44.65 -41 46.3 -41 48 C-25.49 48 -9.98 48 6 48 C6 32.82 6 17.64 6 2 C4.68 2 3.36 2 2 2 Z " fill="#DB3B43" transform="translate(51,83)"/>
<path d="M0 0 C7.92 0 15.84 0 24 0 C23.67 0.99 23.34 1.98 23 3 C22.01 3 21.02 3 20 3 C20 2.34 20 1.68 20 1 C17.03 1 14.06 1 11 1 C11 7.93 11 14.86 11 22 C13.64 22 16.28 22 19 22 C19 22.33 19 22.66 19 23 C16.36 23 13.72 23 11 23 C11.33 28.28 11.66 33.56 12 39 C13.98 39.66 15.96 40.32 18 41 C18 41.66 18 42.32 18 43 C11.73 43 5.46 43 -1 43 C-1 42.34 -1 41.68 -1 41 C0.65 40.34 2.3 39.68 4 39 C4.33 26.79 4.66 14.58 5 2 C3.35 1.67 1.7 1.34 0 1 C0 0.67 0 0.34 0 0 Z " fill="#292A87" transform="translate(112,82)"/>
<path d="M0 0 C4.74162611 -0.33145348 8.71875516 -0.56374773 13.125 1.375 C15.6057111 4.84799554 15.71476778 7.37922334 15.47265625 11.58203125 C15 14 15 14 13.0625 17.125 C8.94613247 19.64522502 5.70278047 19.46105691 1 19 C-0.65497356 15.69005287 -0.10084335 12.00877 -0.0625 8.375 C-0.05798828 7.57320313 -0.05347656 6.77140625 -0.04882812 5.9453125 C-0.03703168 3.96350994 -0.01909605 1.98174567 0 0 Z " fill="#F5F5FC" transform="translate(82,103)"/>
<path d="M0 0 C8 0 8 0 11 1.375 C13.65070044 4.85404433 13.70239943 7.35768084 13.5 11.65234375 C13 14 13 14 10.625 16.5625 C6.09826419 19.04142676 5.93263605 19 0 19 C0 12.73 0 6.46 0 0 Z " fill="#F4F5FC" transform="translate(124,84)"/>
<path d="M0 0 C12.87 0 25.74 0 39 0 C39 3.96 39 7.92 39 12 C35.2038649 10.73462163 34.84505245 9.44944589 33 6 C32.34 4.68 31.68 3.36 31 2 C26.71 2 22.42 2 18 2 C18 14.54 18 27.08 18 40 C17.67 40 17.34 40 17 40 C17 27.46 17 14.92 17 2 C8.54380819 2.03784859 8.54380819 2.03784859 5.5 5.3125 C4.20770299 7.62786547 3.38586983 9.39537864 3 12 C2.01 12 1.02 12 0 12 C0 8.04 0 4.08 0 0 Z " fill="#3E3E8A" transform="translate(172,81)"/>
<path d="M0 0 C0.99 0.33 1.98 0.66 3 1 C3 1.66 3 2.32 3 3 C3.99 2.01 4.98 1.02 6 0 C6 5.28 6 10.56 6 16 C5.67 16 5.34 16 5 16 C4.67 14.02 4.34 12.04 4 10 C2.72694444 11.04871253 2.72694444 11.04871253 2.88647461 13.40844727 C2.89171143 14.45057373 2.89694824 15.4927002 2.90234375 16.56640625 C2.90556641 17.69111328 2.90878906 18.81582031 2.91210938 19.97460938 C2.92048828 21.15861328 2.92886719 22.34261719 2.9375 23.5625 C2.94201172 24.75037109 2.94652344 25.93824219 2.95117188 27.16210938 C2.96300325 30.10812226 2.97948713 33.05403681 3 36 C4.65 36 6.3 36 8 36 C8 36.66 8 37.32 8 38 C9.43791516 37.85831863 10.8753237 37.71148957 12.3125 37.5625 C13.11300781 37.48128906 13.91351563 37.40007812 14.73828125 37.31640625 C17.16087179 37.04734307 17.16087179 37.04734307 20 36 C20 36.99 20 37.98 20 39 C20.66 39.33 21.32 39.66 22 40 C18.82212459 41.0592918 16.57411057 41.11458939 13.23828125 41.09765625 C12.12001953 41.09443359 11.00175781 41.09121094 9.84960938 41.08789062 C8.68236328 41.07951172 7.51511719 41.07113281 6.3125 41.0625 C5.13365234 41.05798828 3.95480469 41.05347656 2.74023438 41.04882812 C-0.17322789 41.03703273 -3.08658863 41.0205727 -6 41 C-6 40.01 -6 39.02 -6 38 C-3.525 37.505 -3.525 37.505 -1 37 C-0.67 24.79 -0.34 12.58 0 0 Z " fill="#3F3F90" transform="translate(75,84)"/>
<path d="M0 0 C8 0 8 0 11 1.5 C13.28906621 4.36133276 13.73664371 6.36567403 13.4765625 10.02734375 C12.61326281 13.60083837 10.99999006 15.00000663 8 17 C5.36 17 2.72 17 0 17 C0 11.39 0 5.78 0 0 Z " fill="#F2F3FB" transform="translate(82,83)"/>
<path d="M0 0 C2.97 0 5.94 0 9 0 C9 0.33 9 0.66 9 1 C6.36 1 3.72 1 1 1 C1 7.27 1 13.54 1 20 C7.99413498 18.81150843 7.99413498 18.81150843 13 15 C13.62304183 12.00726914 13.87207839 9.05093047 14 6 C14.33 6 14.66 6 15 6 C15 8.97 15 11.94 15 15 C18.27773504 14.24849977 18.27773504 14.24849977 20 11 C20.8125 12.6875 20.8125 12.6875 21 15 C18.59876799 18.03685225 16.93950492 19.72858747 13.1875 20.8125 C12.1046875 20.9053125 12.1046875 20.9053125 11 21 C11 21.66 11 22.32 11 23 C7.7 23 4.4 23 1 23 C1 27.95 1 32.9 1 38 C0.67 38 0.34 38 0 38 C0 25.46 0 12.92 0 0 Z " fill="#5F60A7" transform="translate(123,83)"/>
<path d="M0 0 C0.33 0 0.66 0 1 0 C1.33 2.31 1.66 4.62 2 7 C2.33 5.35 2.66 3.7 3 2 C3.33 2 3.66 2 4 2 C4 12.56 4 23.12 4 34 C2.68 34.66 1.36 35.32 0 36 C0 24.12 0 12.24 0 0 Z " fill="#292B8D" transform="translate(157,85)"/>
<path d="M0 0 C1.32 0 2.64 0 4 0 C4.33 8.91 4.66 17.82 5 27 C5.66 27 6.32 27 7 27 C7.33 30.63 7.66 34.26 8 38 C10.64 38.66 13.28 39.32 16 40 C16 40.66 16 41.32 16 42 C9.73 42 3.46 42 -3 42 C-3 41.34 -3 40.68 -3 40 C-1.35 39.34 0.3 38.68 2 38 C2.33 25.79 2.66 13.58 3 1 C2.01 0.67 1.02 0.34 0 0 Z " fill="#434491" transform="translate(114,83)"/>
<path d="M0 0 C2.97 0 5.94 0 9 0 C9 12.54 9 25.08 9 38 C10.98 37.505 10.98 37.505 13 37 C15.359375 37.55859375 15.359375 37.55859375 17.75 38.4375 C18.54921875 38.72496094 19.3484375 39.01242188 20.171875 39.30859375 C20.77515625 39.53675781 21.3784375 39.76492187 22 40 C22 40.66 22 41.32 22 42 C15.07 42 8.14 42 1 42 C1 41.01 1 40.02 1 39 C3.97 38.505 3.97 38.505 7 38 C7.33 25.79 7.66 13.58 8 1 C5.36 1 2.72 1 0 1 C0 0.67 0 0.34 0 0 Z " fill="#5958A1" transform="translate(180,83)"/>
<path d="M0 0 C0.33 0.66 0.66 1.32 1 2 C3.32156597 2.40729228 5.6568787 2.74438677 8 3 C8.33 3.99 8.66 4.98 9 6 C2.73 6 -3.54 6 -10 6 C-10 5.34 -10 4.68 -10 4 C-9.36191406 3.79503906 -8.72382813 3.59007813 -8.06640625 3.37890625 C-7.24011719 3.10949219 -6.41382813 2.84007813 -5.5625 2.5625 C-4.73878906 2.29566406 -3.91507813 2.02882813 -3.06640625 1.75390625 C-1.03780412 1.17844506 -1.03780412 1.17844506 0 0 Z " fill="#2C2C87" transform="translate(160,119)"/>
<path d="M0 0 C0.33 0.99 0.66 1.98 1 3 C1.66 3.33 2.32 3.66 3 4 C-0.17787541 5.0592918 -2.42588943 5.11458939 -5.76171875 5.09765625 C-6.87998047 5.09443359 -7.99824219 5.09121094 -9.15039062 5.08789062 C-10.31763672 5.07951172 -11.48488281 5.07113281 -12.6875 5.0625 C-13.86634766 5.05798828 -15.04519531 5.05347656 -16.25976562 5.04882812 C-19.17322789 5.03703273 -22.08658863 5.0205727 -25 5 C-25 4.01 -25 3.02 -25 2 C-23.35 2 -21.7 2 -20 2 C-20 2.33 -20 2.66 -20 3 C-16.37 3 -12.74 3 -9 3 C-9 2.67 -9 2.34 -9 2 C-6.03 1.34 -3.06 0.68 0 0 Z " fill="#605FA0" transform="translate(94,120)"/>
<path d="M0 0 C3.96 0 7.92 0 12 0 C12 5.61 12 11.22 12 17 C11.67 17 11.34 17 11 17 C10.67 12.05 10.34 7.1 10 2 C9.01 2.99 8.02 3.98 7 5 C7 4.01 7 3.02 7 2 C4.69 1.67 2.38 1.34 0 1 C0 0.67 0 0.34 0 0 Z " fill="#4F4F9F" transform="translate(70,83)"/>
<path d="M0 0 C1.65 0 3.3 0 5 0 C5 3.69418201 3.71820705 5.77836178 2 9 C1.34 9 0.68 9 0 9 C0 6.03 0 3.06 0 0 Z " fill="#313089" transform="translate(173,83)"/>
<path d="M0 0 C1.98 0.66 3.96 1.32 6 2 C6 2.66 6 3.32 6 4 C-0.27 4 -6.54 4 -13 4 C-13 3.67 -13 3.34 -13 3 C-8.38 2.67 -3.76 2.34 1 2 C0.67 1.34 0.34 0.68 0 0 Z " fill="#595697" transform="translate(163,121)"/>
<path d="M0 0 C1.65 0 3.3 0 5 0 C5 0.66 5 1.32 5 2 C8.3 2.33 11.6 2.66 15 3 C15 3.33 15 3.66 15 4 C13.25008666 4.02715383 11.50005055 4.04646551 9.75 4.0625 C8.28820312 4.07990234 8.28820312 4.07990234 6.796875 4.09765625 C4.34241322 4.01195577 2.33831086 3.70706066 0 3 C0 2.01 0 1.02 0 0 Z " fill="#323389" transform="translate(78,120)"/>
<path d="M0 0 C0.33 0 0.66 0 1 0 C1.66 3.63 2.32 7.26 3 11 C-1 11 -1 11 -3 10 C-2.34 9.01 -1.68 8.02 -1 7 C-0.60612212 4.67612053 -0.26513915 2.34206251 0 0 Z " fill="#4A4A96" transform="translate(95,88)"/>
<path d="M0 0 C1.32 0.33 2.64 0.66 4 1 C4 1.99 4 2.98 4 4 C3.67 3.67 3.34 3.34 3 3 C2.67 6.63 2.34 10.26 2 14 C1.67 14 1.34 14 1 14 C0.67 9.38 0.34 4.76 0 0 Z " fill="#2B2B83" transform="translate(97,104)"/>
<path d="M0 0 C2 2 2 2 2.375 4.8125 C1.92199358 8.66305455 0.6183364 10.21801758 -2 13 C-1.855625 12.34 -1.71125 11.68 -1.5625 11 C-0.87700084 7.34400449 -0.43824485 3.69377805 0 0 Z " fill="#58569A" transform="translate(101,85)"/>
<path d="M0 0 C1.98 0 3.96 0 6 0 C6 1.65 6 3.3 6 5 C3 5 3 5 1.3125 3.625 C0 2 0 2 0 0 Z " fill="#413F95" transform="translate(203,83)"/>
<path d="M0 0 C0.33 0.66 0.66 1.32 1 2 C4.02934491 2.65772428 4.02934491 2.65772428 7 3 C6.01 3.33 5.02 3.66 4 4 C3.67 4.99 3.34 5.98 3 7 C1.68 5.68 0.36 4.36 -1 3 C-0.67 2.01 -0.34 1.02 0 0 Z " fill="#53539D" transform="translate(93,100)"/>
<path d="M0 0 C0.33 0 0.66 0 1 0 C1.29363808 4.99184736 1.07836372 7.97444744 -2 12 C-2.99 12.495 -2.99 12.495 -4 13 C-3.67 11.68 -3.34 10.36 -3 9 C-2.34 9 -1.68 9 -1 9 C-0.67 6.03 -0.34 3.06 0 0 Z " fill="#4A4991" transform="translate(104,109)"/>
<path d="M0 0 C4.29 0 8.58 0 13 0 C12.67 0.99 12.34 1.98 12 3 C11.01 3 10.02 3 9 3 C9 2.34 9 1.68 9 1 C6.03 1 3.06 1 0 1 C0 0.67 0 0.34 0 0 Z " fill="#333084" transform="translate(123,82)"/>
</svg>
