<svg width="184" height="27" viewBox="0 0 184 27" fill="none" xmlns="http://www.w3.org/2000/svg">
<path d="M0.612 26V24.884L3.836 24.543C3.898 22.559 3.929 19.552 3.929 15.522V13.817C3.929 9.80767 3.898 6.811 3.836 4.827L0.612 4.486V3.401H9.943C12.2577 3.401 14.066 3.90733 15.368 4.92C16.608 5.89133 17.228 7.20367 17.228 8.857C17.228 10.1383 16.8147 11.2337 15.988 12.143C15.0787 13.135 13.725 13.8273 11.927 14.22C14.097 14.5093 15.74 15.1707 16.856 16.204C17.8687 17.1547 18.375 18.374 18.375 19.862C18.375 21.5773 17.7033 22.993 16.36 24.109C14.81 25.3697 12.5987 26 9.726 26H0.612ZM6.595 24.729H9.106C11.2553 24.729 12.8777 24.3157 13.973 23.489C15.0683 22.6417 15.616 21.4327 15.616 19.862C15.616 16.5553 13.3013 14.902 8.672 14.902H6.502C6.502 19.428 6.533 22.7037 6.595 24.729ZM6.502 13.662H8.455C12.5677 13.662 14.624 12.0913 14.624 8.95C14.624 7.462 14.1797 6.377 13.291 5.695C12.4023 5.013 11.0073 4.672 9.106 4.672H6.595C6.533 6.61467 6.502 9.61133 6.502 13.662ZM21.5309 26V24.884L24.7549 24.543C24.8169 22.5797 24.8479 19.583 24.8479 15.553V13.848C24.8479 9.818 24.8169 6.811 24.7549 4.827L21.5309 4.486V3.401H30.4589C33.1456 3.401 35.2019 4.01067 36.6279 5.23C37.9919 6.38733 38.6739 7.989 38.6739 10.035C38.6739 12.081 37.9609 13.693 36.5349 14.871C34.9229 16.1937 32.5359 16.855 29.3739 16.855H27.4209C27.4209 20.2443 27.4519 22.807 27.5139 24.543L30.8309 24.884V26H21.5309ZM27.4209 15.615H29.6529C33.8483 15.615 35.9459 13.755 35.9459 10.035C35.9459 6.45967 33.9516 4.672 29.9629 4.672H27.5139C27.4519 6.656 27.4209 9.71467 27.4209 13.848V15.615ZM41.2692 26V24.884L44.4932 24.543C44.5552 22.5797 44.5862 19.583 44.5862 15.553V13.848C44.5862 9.818 44.5552 6.811 44.4932 4.827L41.2692 4.486V3.401H50.4762V4.486L47.2522 4.827C47.1902 6.79033 47.1592 9.79733 47.1592 13.848V15.553C47.1592 19.5623 47.1902 22.559 47.2522 24.543L50.4762 24.884V26H41.2692ZM57.2766 26V24.884L60.8726 24.543C60.9139 22.5797 60.9346 19.583 60.9346 15.553V13.848C60.9346 9.77667 60.9139 6.749 60.8726 4.765H55.1996L54.3316 9.291H52.7816L53.0296 3.401H71.3816L71.6916 9.291H70.1416L69.2736 4.765H63.6006C63.5386 6.72833 63.5076 9.756 63.5076 13.848V15.553C63.5076 19.5623 63.5386 22.559 63.6006 24.543L67.1656 24.884V26H57.2766ZM72.6005 26V24.884L75.3905 24.512L82.5515 3.184H84.2875L91.5725 24.574L94.3625 24.884V26H85.4035V24.884L88.8135 24.543L86.7675 18.374H78.8005L76.7855 24.481L80.0405 24.884V26H72.6005ZM79.2345 17.103H86.3335L82.7685 6.377L79.2345 17.103ZM95.5638 26V25.008L98.4468 24.605C98.4881 22.1663 98.5088 20.2753 98.5088 18.932V3.494L95.6878 3.246V2.285L100.493 0.982999L100.958 1.262L100.865 6.036V18.932C100.865 20.2753 100.885 22.1663 100.927 24.605L103.717 25.008V26H95.5638ZM112.497 26.434C111.029 26.434 109.944 25.9793 109.242 25.07C108.456 24.078 108.074 22.4867 108.095 20.296L108.188 11.678L105.615 11.244V10.252L110.265 9.849L110.575 10.19L110.42 14.902V20.11C110.42 21.6807 110.668 22.807 111.164 23.489C111.639 24.1297 112.393 24.45 113.427 24.45C115.204 24.45 116.888 23.6233 118.48 21.97L118.542 11.678L116 11.244V10.252L120.588 9.849L120.929 10.19L120.805 14.902V24.636L123.192 25.008V26L118.79 26.279L118.542 23.179C116.785 25.349 114.77 26.434 112.497 26.434ZM125.878 26V25.008L128.482 24.636C128.544 22.9 128.575 20.9987 128.575 18.932V17.227C128.575 15.987 128.534 14.499 128.451 12.763C128.451 12.6597 128.451 12.577 128.451 12.515L125.692 12.298V11.306L130.156 9.663L130.59 9.973L130.838 12.825C131.748 11.833 132.709 11.058 133.721 10.5C134.775 9.92133 135.809 9.632 136.821 9.632C138.95 9.632 140.262 10.717 140.758 12.887C142.536 10.717 144.592 9.632 146.927 9.632C149.759 9.632 151.174 11.5747 151.174 15.46V18.932C151.174 20.4407 151.195 22.3317 151.236 24.605L153.685 25.008V26H146.152V25.008L148.787 24.636C148.829 22.3213 148.849 20.42 148.849 18.932V15.77C148.849 14.22 148.601 13.1143 148.105 12.453C147.63 11.8743 146.886 11.585 145.873 11.585C144.261 11.585 142.618 12.4117 140.944 14.065C141.006 14.561 141.037 15.1087 141.037 15.708V18.932C141.037 20.4407 141.058 22.3317 141.099 24.605L143.548 25.008V26H136.015V25.008L138.65 24.636C138.692 22.3627 138.712 20.4613 138.712 18.932V15.832C138.712 14.282 138.475 13.1763 137.999 12.515C137.545 11.895 136.821 11.585 135.829 11.585C134.321 11.585 132.688 12.391 130.931 14.003V18.932C130.931 20.4407 130.952 22.3317 130.993 24.605L133.442 25.008V26H125.878ZM156.122 26V25.008L158.726 24.636C158.788 22.9 158.819 20.9987 158.819 18.932V17.227C158.819 16.0077 158.777 14.5403 158.695 12.825C158.695 12.6803 158.695 12.577 158.695 12.515L155.936 12.298V11.306L160.4 9.663L160.834 9.973L161.082 12.825C161.991 11.833 162.993 11.058 164.089 10.5C165.184 9.92133 166.248 9.632 167.282 9.632C168.728 9.632 169.793 10.097 170.475 11.027C171.177 11.9983 171.529 13.5587 171.529 15.708V18.932C171.529 20.9987 171.56 22.8897 171.622 24.605L174.071 25.008V26H166.476V25.008L169.111 24.636C169.152 22.3627 169.173 20.4613 169.173 18.932V15.832C169.173 14.2613 168.935 13.1453 168.46 12.484C168.005 11.864 167.271 11.554 166.259 11.554C164.667 11.554 162.973 12.3807 161.175 14.034V18.932C161.175 20.4407 161.195 22.3317 161.237 24.605L163.686 25.008V26H156.122ZM176.402 26V25.008L179.068 24.605C179.109 22.3317 179.13 20.4407 179.13 18.932V17.196C179.13 15.088 179.109 13.5173 179.068 12.484L176.216 12.298V11.275L181.083 9.663L181.548 9.973L181.455 14.375V18.932C181.455 20.4407 181.476 22.3317 181.517 24.605L183.966 25.008V26H176.402ZM180.215 1.665C180.794 1.665 181.269 1.84067 181.641 2.192C182.013 2.54333 182.199 2.998 182.199 3.556C182.199 4.114 182.003 4.56867 181.61 4.92C181.238 5.27133 180.773 5.447 180.215 5.447C179.657 5.447 179.192 5.27133 178.82 4.92C178.448 4.56867 178.262 4.114 178.262 3.556C178.262 2.998 178.448 2.54333 178.82 2.192C179.192 1.84067 179.657 1.665 180.215 1.665Z" fill="#0F9E99"/>
</svg>
