<svg width="1159" height="592" viewBox="0 0 1159 592" fill="none" xmlns="http://www.w3.org/2000/svg">
<g clip-path="url(#clip0_676_255)">
<path d="M994.716 515.099H973.229V586.178H994.716V515.099Z" fill="#D6D6E3"/>
<path d="M850.443 432.219L832.025 444.497L825.886 462.915L1062.25 545.795L1071.46 512.029L850.443 432.219Z" fill="#D6D6E3"/>
<path d="M916.44 65.3988L832.025 444.497L1071.46 512.029L1140.52 19.3545L916.44 65.3988Z" fill="#F2F2F2"/>
<path d="M1128.41 30.9751L910.402 74.0021C905.12 75.0447 900.401 70.5359 901.201 65.2115L902.217 58.4564C902.7 55.2472 905.124 52.6746 908.299 52.0019L1128.77 5.28763C1134.65 4.0411 1139.66 9.65477 1137.76 15.3598L1134.28 25.8021C1133.4 28.4577 1131.15 30.4331 1128.41 30.9751Z" fill="#D6D6E3"/>
<path d="M908.172 192.359L908.168 194.984L1020 195.119L1020 192.494L908.172 192.359Z" fill="#0F9E99"/>
<path d="M1062.94 131.973L967.932 141.855L968.203 144.468L1063.21 134.585L1062.94 131.973Z" fill="#0F9E99"/>
<path d="M672.367 256.307L638.903 370.699C634.459 385.889 645.023 401.348 660.789 402.728L697.306 405.924L672.367 256.307Z" fill="#0F9E99"/>
<path opacity="0.1" d="M672.367 256.307L638.903 370.699C634.459 385.889 645.023 401.348 660.789 402.728L697.306 405.924L672.367 256.307Z" fill="black"/>
<path d="M935.737 204.87V193.045C935.737 193.045 1015.5 187.901 1024.13 190.685C1024.13 190.685 1027.66 196.676 1009.73 197.632C1009.73 197.632 953.919 206.033 935.737 204.87Z" fill="#090814"/>
<path d="M976.104 235.204L931.341 309.232L910.266 282.531L951.456 218.042C949.992 210.539 951.764 201.83 957.001 194.31C966.163 181.151 982.419 176.631 993.309 184.214C1004.2 191.796 1005.6 208.61 996.437 221.769C991.201 229.29 983.648 233.973 976.104 235.204Z" fill="#FFB6B6"/>
<path d="M697.038 414.662L691.663 432.944L691.845 451.481C691.845 451.481 656.49 494.004 669.515 585.98L835.172 583.903L815.439 435.902L697.038 414.662Z" fill="#090814"/>
<path d="M715.684 161.325C715.684 135.379 736.717 114.347 762.662 114.347C788.607 114.347 809.64 135.379 809.64 161.325C809.64 182.366 795.805 200.174 776.737 206.155L769.733 211.798L782.307 255.809L767.655 266.174L721.358 227.593C721.358 227.593 731.359 214.854 736.723 200.489C724.046 192.076 715.684 177.679 715.684 161.325Z" fill="#FFB6B6"/>
<path d="M942.14 232.854C925.554 232.601 894.894 285.828 894.894 285.828L869.708 276.921L817.908 258.583L778.21 242.243L778.384 243.443C778.228 243.067 778.058 242.687 777.871 242.303C773.698 233.704 761.574 223.586 727.156 225.591L710.95 238.383L708.745 240.135C708.745 240.135 698.519 239.25 688.329 243.315C680.958 246.278 673.586 251.807 670.099 262.141C668.293 267.472 668.293 278.492 669.376 292.495C673.297 343.192 691.57 450.967 691.57 450.967L806.923 435.697L815.433 435.896C815.433 435.896 816.445 424.279 817.348 409.066C817.908 400.14 818.414 390.004 818.703 380.248C818.902 373.093 818.956 366.155 818.83 360.049C818.812 359.669 818.812 359.29 818.794 358.91C818.45 347.763 817.33 339.687 814.927 338.802C814.927 338.802 822.389 338.603 833.157 338.205C859.174 337.23 904.524 335.043 910.992 331.52C920.134 326.552 968.066 259.865 968.066 259.865C968.066 259.865 958.744 233.125 942.14 232.854Z" fill="#0F9E99"/>
<path d="M811.028 164.792C807.479 147.431 805.777 138.538 792.878 126.257C789.816 126.69 793.686 142.565 776.811 164.678C752.279 196.824 754.725 167.35 747.471 177.253C745.896 179.402 745.556 187.159 746.073 189.827C748.118 200.371 760.22 190.076 747.471 226.153C745.574 228.959 743.337 228.277 740.485 228.249C740.264 228.247 741.711 227.97 736.293 226.852C733.707 226.318 730.088 225.687 725.749 224.956C675.347 216.465 657.549 152.867 696.508 119.779C705.372 112.251 714.07 106.546 721.623 103.902C744.371 95.9394 796.2 101.115 806.151 126.955C810.898 139.281 812.483 151.911 811.028 164.792Z" fill="#010102"/>
<path d="M707.219 266.881C727.072 266.881 743.167 250.786 743.167 230.932C743.167 211.079 727.072 194.984 707.219 194.984C687.365 194.984 671.271 211.079 671.271 230.932C671.271 250.786 687.365 266.881 707.219 266.881Z" fill="#010102"/>
<path d="M199.603 587.629H221.09V509.986H199.603V587.629Z" fill="#D6D6E3"/>
<path d="M343.876 427.106L362.293 439.385L368.433 457.803L132.072 540.683L122.863 506.917L343.876 427.106Z" fill="#D6D6E3"/>
<path d="M277.878 60.2865L362.293 439.385L122.862 506.917L53.7959 14.2422L277.878 60.2865Z" fill="#F2F2F2"/>
<path d="M65.9131 25.8628L283.917 68.8898C289.199 69.9324 293.919 65.4236 293.118 60.0992L292.102 53.3441C291.619 50.1349 289.195 47.5623 286.02 46.8896L65.5518 0.175327C59.6687 -1.0712 54.6559 4.54247 56.5575 10.2475L60.0383 20.6898C60.9235 23.3454 63.1669 25.3208 65.9131 25.8628Z" fill="#D6D6E3"/>
<path d="M233.79 160.564C227.801 160.564 221.798 158.041 216.531 153.238C210.169 147.437 205.631 138.975 203.752 129.41C199.846 109.523 208.803 90.9601 223.718 88.0295C231.019 86.5963 238.603 89.0551 245.074 94.9573C251.436 100.758 255.974 109.22 257.853 118.785C261.759 138.672 252.802 157.235 237.887 160.165C236.528 160.432 235.159 160.564 233.79 160.564ZM227.799 90.2589C226.602 90.2589 225.409 90.373 224.225 90.6063C210.729 93.2574 202.701 110.437 206.329 128.905C208.099 137.92 212.351 145.873 218.3 151.298C224.141 156.625 230.914 158.864 237.38 157.589C250.876 154.938 258.904 137.758 255.276 119.29C253.506 110.275 249.254 102.322 243.305 96.8969C238.533 92.5459 233.138 90.2589 227.799 90.2589Z" fill="#0F9E99"/>
<path d="M231.053 122.275L230.551 124.852L258.682 130.332L259.184 127.755L231.053 122.275Z" fill="#0F9E99"/>
<path d="M343.697 140.287V128.462C343.697 128.462 263.934 123.318 255.309 126.101C255.309 126.101 251.772 132.093 269.707 133.049C269.707 133.049 325.515 141.45 343.697 140.287Z" fill="#090814"/>
<path d="M328.08 143.483L378.764 219.911L343.626 228.02L300.468 159.335C292.614 157.34 285.069 151.698 280.232 143.273C271.769 128.532 274.798 110.904 286.998 103.9C299.198 96.8957 315.948 103.168 324.411 117.909C329.248 126.334 330.316 135.694 328.08 143.483Z" fill="#FFB6B6"/>
<path d="M579.875 154.868C579.875 121.331 552.688 94.1436 519.151 94.1436C485.614 94.1436 458.427 121.331 458.427 154.868C458.427 182.066 476.31 205.085 500.958 212.816L510.011 220.11L493.758 276.999L512.697 290.397L572.542 240.527C572.542 240.527 559.613 224.06 552.68 205.492C569.067 194.617 579.875 176.008 579.875 154.868Z" fill="#FFB6B6"/>
<path d="M408.262 473.917L479.695 416.405L491.007 450.646L426.591 499.95C425.329 507.955 420.406 515.987 412.462 521.58C398.564 531.365 380.732 529.974 372.633 518.471C364.535 506.969 369.237 489.712 383.135 479.926C391.079 474.334 400.301 472.407 408.262 473.917Z" fill="#FFB6B6"/>
<path d="M592.521 387.875L592.59 388.162L431.088 501.708L408.078 459.755L485.632 380.883L592.521 387.875Z" fill="#0F9E99"/>
<path opacity="0.1" d="M592.521 387.875L592.59 388.162L431.088 501.708L408.078 459.755L485.632 380.883L592.521 387.875Z" fill="black"/>
<path d="M597.417 477.471L464.468 508.727L467.117 584.865H613.081L597.417 477.471Z" fill="#090814"/>
<path d="M558.828 218.335C558.828 218.335 534.469 222.759 508.317 238.423C482.165 254.087 461.956 323.901 461.956 323.901C461.956 323.901 440.445 489.064 464.129 508.257L597.416 477.471C597.416 477.471 614.777 463.909 621.995 416.836C628.929 371.618 601.724 214.861 558.828 218.335Z" fill="#0F9E99"/>
<path d="M538.83 254.34L442.397 247.115L340.259 164.896C340.259 164.896 297.785 184.085 301.866 194.234C305.947 204.383 353.298 289.491 353.298 289.491C353.298 289.491 493.631 341.333 510.49 343.458C527.349 345.584 538.83 254.34 538.83 254.34Z" fill="#0F9E99"/>
<path d="M542.363 199.667L561.088 201.391C561.748 205.152 586.358 173.032 586.995 153.125C587.144 148.456 590.977 94.1169 538.83 81.4741C486.683 68.8314 445.413 107.61 455.317 113.072C465.221 118.534 492.392 122.248 492.392 122.248C492.392 122.248 472.071 155.418 497.451 166.346C497.451 166.346 498.494 182.686 506.144 183.369C513.794 184.051 534 172.667 538.017 186.266L542.034 199.865" fill="#090814"/>
<path d="M275.623 255.029L166.78 264.793L167.014 267.408L275.858 257.644L275.623 255.029Z" fill="#0F9E99"/>
<path d="M1156 591.138H2.8509C1.15196 591.008 -0.103309 589.531 0.00671091 587.832C-0.103309 586.151 1.15196 584.674 2.8509 584.544H1156C1157.5 584.728 1158.68 585.911 1158.86 587.406C1159.1 589.235 1157.83 590.896 1156 591.138Z" fill="#CCCCCC"/>
</g>
<defs>
<clipPath id="clip0_676_255">
<rect width="1158.89" height="591.138" fill="white"/>
</clipPath>
</defs>
</svg>
