<svg width="1266" height="593" viewBox="0 0 1266 593" fill="none" xmlns="http://www.w3.org/2000/svg">
<path d="M174.16 360V354.84L181.212 354.152C184.996 353.808 187.633 352.776 189.124 351.056C190.615 349.336 191.36 346.469 191.36 342.456V257.144C191.36 253.131 190.615 250.264 189.124 248.544C187.633 246.824 184.996 245.792 181.212 245.448L174.16 244.76V239.6H225.244C240.495 239.6 251.732 242.123 258.956 247.168C266.18 252.099 269.792 259.265 269.792 268.668C269.792 283.689 259.931 293.436 240.208 297.908C251.216 299.169 259.185 302.208 264.116 307.024C269.047 311.84 271.512 318.319 271.512 326.46C271.512 332.537 270.021 338.156 267.04 343.316C264.059 348.361 259.243 352.432 252.592 355.528C246.056 358.509 237.227 360 226.104 360H174.16ZM223.18 353.12C233.385 353.12 241.183 350.827 246.572 346.24C251.961 341.653 254.656 335.175 254.656 326.804C254.656 318.892 252.191 312.872 247.26 308.744C242.444 304.501 235.335 302.38 225.932 302.38H207.528V346.584C207.528 348.877 208.617 350.54 210.796 351.572C213.089 352.604 217.217 353.12 223.18 353.12ZM207.528 295.5H226.276C233.844 295.5 240.151 293.207 245.196 288.62C250.356 284.033 252.936 277.555 252.936 269.184C252.936 262.075 250.585 256.513 245.884 252.5C241.183 248.487 233.729 246.48 223.524 246.48C218.479 246.48 214.523 246.939 211.656 247.856C208.904 248.659 207.528 249.977 207.528 251.812V295.5ZM283.34 360V354.84L290.392 354.152C292.914 353.923 294.921 353.407 296.412 352.604C297.902 351.801 298.934 350.597 299.508 348.992C300.196 347.272 300.54 345.093 300.54 342.456V257.144C300.54 254.392 300.196 252.213 299.508 250.608C298.934 249.003 297.902 247.799 296.412 246.996C294.921 246.193 292.914 245.677 290.392 245.448L283.34 244.76V239.6H332.704C346.349 239.6 356.726 242.18 363.836 247.34C370.945 252.5 374.5 260.011 374.5 269.872C374.5 277.325 372.722 283.804 369.168 289.308C365.613 294.697 360.51 298.883 353.86 301.864C347.324 304.845 339.412 306.393 330.124 306.508L312.236 306.68V299.8H325.308C331.958 299.8 337.634 298.711 342.336 296.532C347.037 294.239 350.649 291.028 353.172 286.9C355.694 282.657 356.956 277.555 356.956 271.592C356.956 263.451 354.834 257.259 350.592 253.016C346.349 248.659 340.214 246.48 332.188 246.48C325.766 246.48 321.581 246.881 319.632 247.684C317.682 248.487 316.708 250.264 316.708 253.016V342.456C316.708 345.208 317.052 347.444 317.74 349.164C318.542 350.769 319.804 351.973 321.524 352.776C323.244 353.579 325.594 354.095 328.576 354.324L335.628 354.84V360H283.34ZM382.105 360V354.84L389.157 354.152C392.024 353.808 394.145 353.177 395.521 352.26C397.012 351.343 397.987 350.081 398.445 348.476C399.019 346.871 399.305 344.864 399.305 342.456V257.144C399.305 254.736 399.019 252.729 398.445 251.124C397.987 249.519 397.012 248.257 395.521 247.34C394.145 246.308 392.024 245.677 389.157 245.448L382.105 244.76V239.6H432.673V244.76L425.621 245.448C422.869 245.677 420.748 246.308 419.257 247.34C417.767 248.257 416.735 249.519 416.161 251.124C415.703 252.729 415.473 254.736 415.473 257.144V342.456C415.473 344.864 415.703 346.871 416.161 348.476C416.735 350.081 417.767 351.343 419.257 352.26C420.748 353.177 422.869 353.808 425.621 354.152L432.673 354.84V360H382.105ZM486.942 342.456V246.308L468.71 246.996C463.206 247.225 458.906 247.971 455.81 249.232C452.829 250.493 450.535 252.787 448.93 256.112C447.439 259.323 446.178 264.024 445.146 270.216H439.814L441.362 238.568C444.687 238.912 448.529 239.199 452.886 239.428C457.358 239.543 461.773 239.6 466.13 239.6H523.922C527.591 239.6 531.662 239.543 536.134 239.428C540.721 239.199 544.906 238.912 548.69 238.568L550.238 270.216H544.906C543.874 264.024 542.555 259.323 540.95 256.112C539.459 252.787 537.166 250.493 534.07 249.232C531.089 247.971 526.846 247.225 521.342 246.996L503.11 246.308V342.456C503.11 345.093 503.454 347.272 504.142 348.992C504.83 350.597 506.091 351.801 507.926 352.604C509.875 353.407 512.513 353.98 515.838 354.324L521.17 354.84V360H468.882V354.84L474.214 354.324C477.654 353.98 480.291 353.407 482.126 352.604C483.961 351.801 485.222 350.597 485.91 348.992C486.598 347.272 486.942 345.093 486.942 342.456ZM535.459 360V354.84C539.817 354.152 543.142 353.349 545.435 352.432C547.843 351.515 549.793 349.909 551.283 347.616C552.774 345.208 554.494 341.596 556.443 336.78L596.519 238.74H602.195L642.443 339.188C644.507 344.463 646.858 348.247 649.495 350.54C652.133 352.833 656.203 354.267 661.707 354.84V360H612.687V354.84L619.739 353.98C623.409 353.521 625.702 352.203 626.619 350.024C627.651 347.731 627.307 344.463 625.587 340.22L591.875 254.908H597.207L564.699 338.156C562.521 343.66 562.005 347.616 563.151 350.024C564.298 352.432 567.05 353.865 571.407 354.324L576.395 354.84V360H535.459ZM571.751 313.388V306.508H623.695V313.388H571.751ZM662.885 360V354.84L668.045 353.98C671.485 353.407 673.778 352.489 674.925 351.228C676.071 349.852 676.645 347.387 676.645 343.832V245.448C676.645 241.779 675.842 239.199 674.237 237.708C672.631 236.103 668.962 234.956 663.229 234.268V229.968L689.717 222.4H692.125V343.832C692.125 347.387 692.698 349.852 693.845 351.228C694.991 352.489 697.285 353.407 700.725 353.98L705.885 354.84V360H662.885ZM749.456 361.72C741.429 361.72 735.065 359.656 730.364 355.528C725.777 351.4 723.484 345.667 723.484 338.328V287.76C723.484 283.976 722.624 281.339 720.904 279.848C719.184 278.357 715.858 277.383 710.928 276.924V272.624L736.04 269.184H738.964V333.168C738.964 337.411 739.652 340.851 741.028 343.488C742.518 346.125 744.754 348.132 747.736 349.508C750.832 350.769 754.673 351.4 759.26 351.4C763.617 351.4 767.516 350.597 770.956 348.992C774.396 347.387 777.778 344.692 781.104 340.908V287.76C781.104 283.976 780.186 281.339 778.352 279.848C776.632 278.357 773.077 277.383 767.688 276.924V272.624L793.66 269.184H796.584V338.328C796.584 342.227 797.444 344.921 799.164 346.412C800.998 347.788 804.725 348.82 810.344 349.508V354.152L784.028 360.344H781.62V348.476H780.588C775.084 353.292 769.981 356.732 765.28 358.796C760.693 360.745 755.418 361.72 749.456 361.72ZM816.776 360V354.84L821.936 353.98C825.376 353.407 827.67 352.489 828.816 351.228C829.963 349.852 830.536 347.387 830.536 343.832V292.576C830.536 288.907 829.734 286.327 828.128 284.836C826.523 283.231 822.854 282.084 817.12 281.396V277.096L843.092 269.528H845.5V282.084H846.532C852.036 277.268 857.082 273.885 861.668 271.936C866.255 269.872 871.186 268.84 876.46 268.84C881.506 268.84 885.978 269.872 889.876 271.936C893.89 273.885 896.642 277.44 898.132 282.6H898.992C904.955 277.555 910.23 274 914.816 271.936C919.518 269.872 924.506 268.84 929.78 268.84C934.023 268.84 937.864 269.528 941.304 270.904C944.744 272.165 947.496 274.344 949.56 277.44C951.624 280.421 952.656 284.607 952.656 289.996V343.832C952.656 347.387 953.23 349.852 954.376 351.228C955.523 352.489 957.816 353.407 961.256 353.98L966.416 354.84V360H923.416V354.84L928.576 353.98C932.016 353.407 934.31 352.489 935.456 351.228C936.603 349.852 937.176 347.387 937.176 343.832V295.156C937.176 290.569 936.488 287.129 935.112 284.836C933.851 282.543 932.074 281.052 929.78 280.364C927.487 279.561 924.85 279.16 921.868 279.16C917.626 279.16 913.784 279.963 910.344 281.568C906.904 283.059 903.235 285.467 899.336 288.792V343.832C899.336 347.387 899.91 349.852 901.056 351.228C902.203 352.489 904.496 353.407 907.936 353.98L913.096 354.84V360H870.096V354.84L875.256 353.98C878.696 353.407 880.99 352.489 882.136 351.228C883.283 349.852 883.856 347.387 883.856 343.832V295.156C883.856 290.569 883.168 287.129 881.792 284.836C880.531 282.543 878.754 281.052 876.46 280.364C874.167 279.561 871.53 279.16 868.548 279.16C864.306 279.16 860.407 279.963 856.852 281.568C853.298 283.059 849.686 285.467 846.016 288.792V343.832C846.016 347.387 846.59 349.852 847.736 351.228C848.883 352.489 851.176 353.407 854.616 353.98L859.776 354.84V360H816.776ZM972.483 360V354.84L977.643 353.98C981.083 353.407 983.377 352.489 984.523 351.228C985.67 349.852 986.243 347.387 986.243 343.832V292.576C986.243 288.907 985.441 286.327 983.835 284.836C982.23 283.231 978.561 282.084 972.827 281.396V277.096L998.799 269.528H1001.21V282.084H1002.24C1007.74 277.268 1012.85 273.885 1017.55 271.936C1022.25 269.872 1027.75 268.84 1034.06 268.84C1042.2 268.84 1048.56 270.904 1053.15 275.032C1057.85 279.045 1060.2 284.779 1060.2 292.232V343.832C1060.2 347.387 1060.78 349.852 1061.92 351.228C1063.07 352.489 1065.36 353.407 1068.8 353.98L1073.96 354.84V360H1030.96V354.84L1036.12 353.98C1039.56 353.407 1041.86 352.489 1043 351.228C1044.15 349.852 1044.72 347.387 1044.72 343.832V297.392C1044.72 293.149 1043.98 289.709 1042.49 287.072C1041 284.435 1038.76 282.485 1035.78 281.224C1032.91 279.848 1029.19 279.16 1024.6 279.16C1020.13 279.16 1016.11 279.963 1012.56 281.568C1009 283.059 1005.39 285.467 1001.72 288.792V343.832C1001.72 347.387 1002.3 349.852 1003.44 351.228C1004.59 352.489 1006.88 353.407 1010.32 353.98L1015.48 354.84V360H972.483ZM1079.82 360V354.84L1084.98 353.98C1088.42 353.407 1090.71 352.489 1091.86 351.228C1093 349.852 1093.58 347.387 1093.58 343.832V292.576C1093.58 288.907 1092.77 286.327 1091.17 284.836C1089.56 283.231 1085.89 282.084 1080.16 281.396V277.096L1106.65 269.528H1109.06V343.832C1109.06 347.387 1109.63 349.852 1110.78 351.228C1111.92 352.489 1114.22 353.407 1117.66 353.98L1122.82 354.84V360H1079.82ZM1099.6 256.284C1096.73 256.284 1094.32 255.367 1092.37 253.532C1090.42 251.583 1089.45 249.117 1089.45 246.136C1089.45 243.155 1090.42 240.747 1092.37 238.912C1094.32 237.077 1096.73 236.16 1099.6 236.16C1102.35 236.16 1104.7 237.077 1106.65 238.912C1108.6 240.747 1109.57 243.155 1109.57 246.136C1109.57 249.117 1108.6 251.583 1106.65 253.532C1104.7 255.367 1102.35 256.284 1099.6 256.284Z" fill="#0C0B0B"/>
</svg>
