<svg width="1015" height="674" viewBox="0 0 1015 674" fill="none" xmlns="http://www.w3.org/2000/svg">
<g clip-path="url(#clip0_41_2)">
<path d="M21.8691 672.035C21.8685 672.26 21.9124 672.483 21.9983 672.692C22.0842 672.9 22.2104 673.089 22.3697 673.248C22.529 673.408 22.7182 673.534 22.9264 673.62C23.1347 673.706 23.3579 673.75 23.5831 673.749H878.289C878.744 673.749 879.18 673.568 879.501 673.247C879.823 672.925 880.004 672.489 880.004 672.035C880.004 671.58 879.823 671.144 879.501 670.822C879.18 670.501 878.744 670.32 878.289 670.32H23.5831C23.3579 670.319 23.1347 670.363 22.9264 670.449C22.7182 670.535 22.529 670.661 22.3697 670.821C22.2104 670.98 22.0842 671.169 21.9983 671.377C21.9124 671.586 21.8685 671.809 21.8691 672.034V672.035Z" fill="#2F2E43"/>
<path d="M465.081 502.848C464.049 509.963 460.488 516.469 455.052 521.173C449.615 525.878 442.666 528.468 435.476 528.468C428.286 528.468 421.337 525.878 415.9 521.173C410.464 516.469 406.903 509.963 405.871 502.848H330.127V670.322H540.821V502.848H465.081Z" fill="#D6D6E3"/>
<path d="M859.2 507.135H11.746C8.63165 507.132 5.64586 505.893 3.44377 503.691C1.24169 501.488 0.00317628 498.502 0 495.388L0 11.745C0.00344094 8.63083 1.24207 5.64519 3.44412 3.44313C5.64618 1.24108 8.63182 0.00244911 11.746 -0.000991821H859.2C862.315 0.0016546 865.301 1.2399 867.504 3.44201C869.707 5.64413 870.946 8.63022 870.95 11.745V495.388C870.947 498.503 869.707 501.489 867.505 503.692C865.302 505.894 862.315 507.132 859.2 507.135Z" fill="#2F2E41"/>
<path d="M851.17 19.599H21.8691V487.536H851.17V19.599Z" fill="white"/>
<path d="M375.739 304.574H238.004C234.662 304.515 231.476 303.145 229.133 300.761C226.79 298.376 225.478 295.167 225.478 291.824C225.478 288.481 226.79 285.272 229.133 282.887C231.476 280.503 234.662 279.133 238.004 279.074H375.739C379.081 279.133 382.267 280.503 384.61 282.887C386.952 285.272 388.265 288.481 388.265 291.824C388.265 295.167 386.952 298.376 384.61 300.761C382.267 303.145 379.081 304.515 375.739 304.574Z" fill="#0F9E99"/>
<path d="M301.068 338.592H234.685C232.624 338.592 230.646 337.773 229.189 336.315C227.731 334.858 226.912 332.881 226.912 330.819C226.912 328.757 227.731 326.78 229.189 325.323C230.646 323.865 232.624 323.046 234.685 323.046H301.068C303.13 323.046 305.107 323.865 306.564 325.323C308.022 326.78 308.841 328.757 308.841 330.819C308.841 332.881 308.022 334.858 306.564 336.315C305.107 337.773 303.13 338.592 301.068 338.592Z" fill="#D6D6E3"/>
<path d="M666.974 369.293H233.026C230.964 369.293 228.987 368.474 227.53 367.016C226.072 365.559 225.253 363.582 225.253 361.52C225.253 359.458 226.072 357.481 227.53 356.024C228.987 354.566 230.964 353.747 233.026 353.747H666.974C669.035 353.747 671.013 354.566 672.47 356.024C673.928 357.481 674.747 359.458 674.747 361.52C674.747 363.582 673.928 365.559 672.47 367.016C671.013 368.474 669.035 369.293 666.974 369.293Z" fill="#D6D6E3"/>
<path d="M629.637 403.312H233.026C230.964 403.312 228.987 402.493 227.53 401.035C226.072 399.578 225.253 397.601 225.253 395.539C225.253 393.477 226.072 391.5 227.53 390.043C228.987 388.585 230.964 387.766 233.026 387.766H629.637C631.698 387.766 633.676 388.585 635.133 390.043C636.591 391.5 637.41 393.477 637.41 395.539C637.41 397.601 636.591 399.578 635.133 401.035C633.676 402.493 631.698 403.312 629.637 403.312Z" fill="#D6D6E3"/>
<path d="M668.712 242.135H232.952C229.622 242.135 226.912 240.052 226.912 237.493V46.349C226.912 43.789 229.621 41.707 232.952 41.707H668.712C672.042 41.707 674.752 43.79 674.752 46.349V237.495C674.752 240.055 672.042 242.137 668.712 242.137V242.135Z" fill="#E6E6E6"/>
<path d="M661.387 236.136H240.829C237.615 236.136 235 234.178 235 231.772V52.07C235 49.664 237.615 47.706 240.829 47.706H661.387C664.601 47.706 667.216 49.664 667.216 52.07V231.77C667.216 234.176 664.601 236.134 661.387 236.134V236.136Z" fill="white"/>
<path d="M918.944 175.979C896.922 175.979 879.07 195.791 879.07 220.23V251.28H888.62L894.149 239.78L892.767 251.28H954.148L959.174 240.822L957.918 251.28H964.829V226.901C964.829 198.778 944.286 175.979 918.944 175.979Z" fill="#090814"/>
<path d="M881.492 319.535L874.869 344.922L936.681 342.714L935.581 321.742C935.581 321.742 889.219 309.601 881.492 319.535Z" fill="#FFB9B9"/>
<path d="M821.888 421.084L841.756 465.236L860.521 442.056L845.068 411.15L821.888 421.084Z" fill="#FFB9B9"/>
<path d="M871.559 583.342L873.766 634.116H898.05L894.738 583.342H871.559Z" fill="#FFB9B9"/>
<path d="M842.861 374.725L853.899 411.15L870.456 587.757C870.456 587.757 885.909 592.172 896.947 586.657L899.153 562.37L903.568 423.292C903.568 423.292 924.54 412.254 922.332 396.801C920.124 381.348 914.605 360.376 914.605 360.376L842.861 374.725Z" fill="#090814"/>
<path d="M877.077 621.97H870.454C870.454 621.97 851.69 641.838 845.067 644.046C838.444 646.254 804.227 665.018 831.821 668.329C859.415 671.64 877.077 657.291 877.077 657.291C877.077 657.291 885.907 662.81 898.049 658.391C910.191 653.972 903.568 640.73 903.568 640.73C903.568 640.73 897.404 620.543 897.175 620.702C896.946 620.861 890.323 630.805 877.077 621.97Z" fill="#090814"/>
<path d="M911.295 244.477C925.316 244.477 936.682 233.111 936.682 219.09C936.682 205.069 925.316 193.703 911.295 193.703C897.274 193.703 885.908 205.069 885.908 219.09C885.908 233.111 897.274 244.477 911.295 244.477Z" fill="#FFB9B9"/>
<path d="M948.824 252.205L937.146 261.94L935.579 263.24L934.479 276.485H891.427C891.427 276.485 897.299 271.397 902.752 266.131C902.862 266.01 902.984 265.877 903.116 265.756C903.856 265.039 904.516 264.376 905.116 263.78C905.436 263.449 905.745 263.14 906.021 262.853C906.474 262.378 906.915 261.926 907.357 261.473C907.363 261.467 907.367 261.459 907.368 261.451C908.497 260.269 909.559 259.023 910.547 257.72L910.558 257.709C910.823 257.358 911.07 256.993 911.298 256.616C914.609 251.097 906.883 240.059 906.883 240.059L931.162 227.921C932.012 239.886 942.134 247.878 946.662 250.88C947.986 251.752 948.824 252.205 948.824 252.205Z" fill="#FFB9B9"/>
<path d="M1008.43 437.641C991.871 442.056 990.767 408.941 990.767 408.941L968.167 363.741C963.392 354.191 960.108 343.966 958.431 333.421L953.231 300.764L951.653 302.651V302.662L948.816 304.075L931.575 276.48L926.74 268.753V259.923L943.297 252.196H949.92C949.92 252.196 950.063 252.174 950.32 252.152C953.366 251.832 973.191 250.507 974.206 269.852C974.606 277.446 974.571 283.738 974.365 288.674C973.736 302.332 975.032 316.01 978.215 329.306C979.384 334.1 980.658 338.264 981.933 340.495C986.348 348.222 1001.8 408.93 1001.8 408.93C1001.8 408.93 1024.98 433.226 1008.43 437.641Z" fill="#FFB9B9"/>
<path d="M906.879 264.346L902.696 271.973L900.223 276.488L888.114 298.564C888.114 298.564 884.681 301.364 879.114 304.988C869.864 311.004 854.698 319.26 839.543 320.64C815.26 322.848 838.443 244.478 838.443 244.478C838.443 244.478 846.17 213.572 857.207 216.883C868.244 220.194 859.415 231.232 851.688 252.204C843.961 273.176 850.588 296.356 850.588 296.356C850.588 296.356 873.768 282.007 885.909 270.969C892.234 265.218 897.664 263.662 901.409 263.496H901.42C902.66 263.428 903.904 263.524 905.12 263.783C905.727 263.905 906.32 264.093 906.886 264.346H906.879Z" fill="#FFB9B9"/>
<path d="M952.688 301.322L951.662 302.67L935.58 330.57C935.58 330.57 914.608 322.843 899.155 320.636C894.909 319.903 890.541 320.454 886.611 322.217C882.68 323.981 879.365 326.877 877.09 330.536L881.49 312.908L879.117 304.983C878.841 304.056 878.517 303.029 878.179 301.87C874.868 290.832 887.009 278.69 887.009 278.69L901.402 263.49H901.413C902.653 263.422 903.897 263.518 905.113 263.777C904.513 264.377 903.855 265.035 903.113 265.753C902.98 265.874 902.859 266.007 902.749 266.128C898.521 270.444 900.718 271.647 902.694 271.967C903.347 272.067 904.009 272.101 904.67 272.067C909.27 272.729 919.35 268.689 926.746 265.312C931.779 263.012 935.576 261.029 935.576 261.029L945.212 252.199L946.658 250.874C947.983 251.746 948.821 252.199 948.821 252.199H949.921C949.921 252.199 950.064 252.177 950.321 252.155L945.295 255.884C942.792 257.741 940.794 260.194 939.482 263.021C938.17 265.847 937.585 268.957 937.782 272.067L952.688 301.322Z" fill="#D6D6E3"/>
<path d="M892.531 332.78L876.394 339.08C876.394 339.08 788.775 305.18 775.529 332.78C762.283 360.38 821.888 426.602 821.888 426.602L848.379 414.46L837.341 381.346C837.341 381.346 901.361 435.432 927.852 405.629C954.343 375.826 936.682 333.687 936.682 333.687C936.682 333.687 920.126 320.639 892.531 332.78Z" fill="#090814"/>
<path d="M846.172 453.094L836.238 460.821C836.238 460.821 845.068 496.142 841.757 501.661C838.446 507.18 831.823 522.633 843.965 521.529C856.107 520.425 869.352 501.661 870.456 495.038C871.56 488.415 879.286 468.547 879.286 468.547C879.286 468.547 892.532 437.641 882.597 436.537C872.662 435.433 856.84 434.694 856.84 434.694L846.172 453.094Z" fill="#090814"/>
<path d="M930.28 188.171C928.361 185.594 925.874 183.495 923.013 182.034C920.151 180.574 916.992 179.793 913.78 179.751H912.997C897.903 179.751 885.668 193.409 885.668 210.257H890.725L891.542 204.04L892.742 210.257H922.742L925.255 204.997L924.627 210.257H930.527C933.28 223.932 929.323 237.607 918.657 251.282H928.709L933.735 240.763L932.478 251.282H951.64L955.41 227.087C955.405 208.971 944.877 193.602 930.28 188.171Z" fill="#090814"/>
<path d="M332.449 236.136H329.501L330.485 178.551H331.469L332.449 236.136Z" fill="#D6D6E3"/>
<path d="M334.905 142.296L339.664 134.942C338.253 131.044 336.623 127.229 334.782 123.514L331.705 126L334.141 122.235C331.819 117.665 329.992 114.785 329.992 114.785C329.992 114.785 320.45 129.823 317.26 145.747L323.367 155.184L316.608 149.724C316.367 151.579 316.243 153.447 316.237 155.317C316.237 174.175 322.396 189.463 329.993 189.463C337.59 189.463 343.749 174.174 343.749 155.317C343.607 149.317 342.544 143.374 340.599 137.696L334.905 142.296Z" fill="#D6D6E3"/>
<path d="M568.233 236.135H565.476L566.396 182.294H567.316L568.233 236.135Z" fill="#D6D6E3"/>
<path d="M570.529 148.396L574.978 141.52C573.658 137.875 572.134 134.308 570.413 130.835L567.537 133.157L569.815 129.637C567.644 125.364 565.936 122.671 565.936 122.671C565.936 122.671 557.013 136.733 554.036 151.621L559.741 160.444L553.422 155.339C553.197 157.073 553.081 158.82 553.075 160.569C553.075 178.201 558.834 192.495 565.937 192.495C573.04 192.495 578.799 178.195 578.799 160.569C578.666 154.959 577.673 149.403 575.854 144.094L570.529 148.396Z" fill="#D6D6E3"/>
<path d="M430.361 109.784C445.98 109.784 458.641 97.1226 458.641 81.504C458.641 65.8854 445.98 53.224 430.361 53.224C414.742 53.224 402.081 65.8854 402.081 81.504C402.081 97.1226 414.742 109.784 430.361 109.784Z" fill="#FF6584"/>
<path d="M454.471 238.364H450.386L451.748 158.558H453.106L454.471 238.364Z" fill="#E6E6E6"/>
<path d="M457.876 108.313L464.476 98.122C462.52 92.7193 460.261 87.4313 457.71 82.283L453.446 85.727L456.823 80.508C453.603 74.174 451.073 70.183 451.073 70.183C451.073 70.183 437.847 91.025 433.428 113.093L441.889 126.172L432.52 118.605C432.186 121.176 432.015 123.765 432.006 126.357C432.006 152.492 440.542 173.679 451.071 173.679C461.6 173.679 470.136 152.492 470.136 126.357C470.136 118.257 468.303 109.778 465.774 101.937L457.876 108.313Z" fill="#0F9E99"/>
<path d="M386.121 236.135H383.563L384.417 186.18H385.271L386.121 236.135Z" fill="#E6E6E6"/>
<path d="M388.252 154.729L392.38 148.349C391.156 144.967 389.742 141.657 388.145 138.435L385.477 140.592L387.591 137.326C385.576 133.361 383.991 130.863 383.991 130.863C383.991 130.863 375.713 143.909 372.946 157.723L378.246 165.91L372.383 161.173C372.174 162.782 372.067 164.403 372.061 166.025C372.061 182.385 377.404 195.646 383.995 195.646C390.586 195.646 395.929 182.382 395.929 166.025C395.806 160.82 394.884 155.665 393.197 150.739L388.252 154.729Z" fill="#E6E6E6"/>
<path d="M517.142 236.136H515.153L515.817 197.29H516.481L517.142 236.136Z" fill="#E6E6E6"/>
<path d="M518.798 172.833L522.008 167.872C521.056 165.242 519.957 162.669 518.715 160.163L516.639 161.84L518.283 159.3C516.716 156.217 515.483 154.274 515.483 154.274C515.483 154.274 509.046 164.418 506.894 175.161L511.013 181.527L506.454 177.844C506.292 179.095 506.208 180.355 506.204 181.617C506.204 194.338 510.359 204.651 515.484 204.651C520.609 204.651 524.764 194.337 524.764 181.617C524.668 177.569 523.951 173.56 522.639 169.73L518.798 172.833Z" fill="#E6E6E6"/>
</g>
<defs>
<clipPath id="clip0_41_2">
<rect width="1014.39" height="673.75" fill="white"/>
</clipPath>
</defs>
</svg>
