<svg width="1302" height="522" viewBox="0 0 1302 522" fill="none" xmlns="http://www.w3.org/2000/svg">
<g clip-path="url(#clip0_667_146)">
<path d="M326.507 88.9864H500.26V1.02441H326.507V88.9864Z" fill="white"/>
<path d="M501.282 90.008H325.482V0.000976562H501.282V90.008ZM326.506 88.986H500.262V1.02298H326.506V88.986Z" fill="#3F3D56"/>
<path d="M375.402 30.623H357.702V32.098H375.402V30.623Z" fill="#0F9E99"/>
<path d="M399.002 30.623H381.302V32.098H399.002V30.623Z" fill="#0F9E99"/>
<path d="M433.296 44.2666H415.596V45.7416H433.296V44.2666Z" fill="#0F9E99"/>
<path d="M457.264 44.2666H439.564V45.7416H457.264V44.2666Z" fill="#0F9E99"/>
<path d="M457.264 30.623H405.271V32.098H457.264V30.623Z" fill="#0F9E99"/>
<path d="M409.695 44.2666H357.702V45.7416H409.695V44.2666Z" fill="#0F9E99"/>
<path d="M409.695 57.9111H357.702V59.3861H409.695V57.9111Z" fill="#0F9E99"/>
<path d="M457.264 57.9111H421.127V59.3861H457.264V57.9111Z" fill="#0F9E99"/>
<path d="M349.322 32.0984L338.764 21.5404L349.322 10.9814L351.434 13.0944L342.988 21.5404L351.434 29.9854L349.322 32.0984Z" fill="#0F9E99"/>
<path d="M481.161 79.532L479.049 77.42L487.493 68.9749L479.049 60.5299L481.161 58.4189L491.717 68.9749L481.161 79.532Z" fill="#0F9E99"/>
<path d="M470.046 57.9106L463.794 78.5391L466.653 79.4054L472.904 58.7769L470.046 57.9106Z" fill="#0F9E99"/>
<path d="M382.001 496.019H1.00098C0.73576 496.019 0.48139 495.913 0.293854 495.726C0.106317 495.538 0.000976562 495.284 0.000976562 495.019C0.000976562 494.753 0.106317 494.499 0.293854 494.311C0.48139 494.124 0.73576 494.019 1.00098 494.019H382.001C382.266 494.019 382.521 494.124 382.708 494.311C382.896 494.499 383.001 494.753 383.001 495.019C383.001 495.284 382.896 495.538 382.708 495.726C382.521 495.913 382.266 496.019 382.001 496.019Z" fill="#F2F2F2"/>
<path d="M189.142 461.243L190.417 475.894C190.417 475.894 198.332 494.561 187.683 494.52C177.034 494.479 174.112 492.604 174.112 492.604C174.112 492.604 169.854 492.055 169.312 493.65C168.77 495.245 132.826 496.438 133.934 485.261C135.042 474.084 168.631 464.094 168.631 464.094L171.863 454.522L189.142 461.243Z" fill="#090814"/>
<path d="M301.653 137.185L305.021 131.292L288.183 127.924L286.499 136.343L289.025 143.078L301.653 137.185Z" fill="#0F9E99"/>
<path opacity="0.2" d="M301.653 137.185L305.021 131.292L288.183 127.924L286.499 136.343L289.025 143.078L301.653 137.185Z" fill="black"/>
<path d="M291.97 133.395C304.06 133.395 313.86 123.595 313.86 111.505C313.86 99.4157 304.06 89.6152 291.97 89.6152C279.881 89.6152 270.08 99.4157 270.08 111.505C270.08 123.595 279.881 133.395 291.97 133.395Z" fill="#FFB9B9"/>
<path d="M273.447 111.506L255.767 140.973L281.867 156.128L295.338 124.977L273.447 111.506Z" fill="#FFB9B9"/>
<path d="M271.763 146.025L249.031 136.759C249.031 136.759 214.512 142.659 211.14 153.602C207.768 164.545 207.772 252.948 207.772 252.948C207.772 252.948 199.353 274.838 211.14 275.68C211.14 275.68 207.772 280.731 211.14 281.573C214.508 282.415 249.026 281.573 262.497 285.783C275.968 289.993 302.909 293.36 302.909 289.151V281.574C302.909 281.574 308.802 275.681 305.435 265.574C302.068 255.467 297.858 233.581 297.858 233.581C297.858 233.581 323.116 178.014 320.59 171.281C318.064 164.548 287.227 143.719 287.227 143.719L271.763 146.025Z" fill="#0F9E99"/>
<path d="M219.564 252.947L220.406 259.682L232.193 245.369H227.983L219.564 252.947Z" fill="#FFB9B9"/>
<path d="M271.764 146.024L247.348 140.131C247.348 140.131 242.296 135.921 242.296 130.87C242.296 125.819 249.873 118.241 254.925 113.19C255.365 112.739 255.892 112.381 256.475 112.14C257.057 111.898 257.682 111.777 258.313 111.783C263.313 111.741 269.376 118.299 269.376 118.299L262.649 129.522L262.349 130.022L271.764 146.024Z" fill="#0F9E99"/>
<path d="M290.58 135.97L305.016 131.29C305.016 131.29 309.647 149.39 304.595 150.233C299.543 151.076 271.76 148.549 271.76 148.549L290.58 135.97Z" fill="#0F9E99"/>
<path d="M212.828 277.358L201.883 339.658C201.883 339.658 197.673 347.235 199.357 350.603C201.041 353.971 201.883 353.971 199.357 355.655C196.831 357.339 193.464 355.655 194.305 359.865C194.81 362.361 195.091 364.897 195.147 367.442L171.573 448.266C171.573 448.266 156.418 455.001 167.363 459.211C178.308 463.421 189.253 466.788 191.779 462.579C194.305 458.37 191.779 453.318 191.779 453.318L230.507 360.707C230.507 360.707 236.4 352.288 236.4 347.236C236.4 342.184 255.768 305.988 255.768 305.988C255.768 305.988 256.61 342.188 257.452 344.716C258.294 347.244 255.768 352.293 255.768 355.661C255.768 359.029 254.084 359.029 255.768 360.713C257.452 362.397 257.452 381.761 257.452 381.761C257.452 381.761 247.352 456.692 253.242 457.534C259.132 458.376 275.974 456.692 275.974 453.324C276.048 452.446 275.844 451.567 275.39 450.812C274.937 450.056 274.257 449.462 273.448 449.114L284.393 385.128C283.934 382.574 284.227 379.942 285.235 377.551C286.919 374.183 286.919 374.183 286.919 372.499C286.919 370.815 286.077 369.973 286.919 369.131C287.469 368.404 287.765 367.517 287.761 366.605C287.761 366.605 286.077 361.553 286.919 360.712C287.761 359.871 306.283 296.726 300.39 289.149C294.497 281.572 212.828 277.358 212.828 277.358Z" fill="#090814"/>
<path d="M254.084 455.008L248.191 468.479C248.191 468.479 234.72 483.633 244.823 487.001C254.926 490.369 258.294 489.527 258.294 489.527C258.294 489.527 262.504 490.369 262.504 492.053C262.504 493.737 296.181 506.366 298.704 495.421C301.227 484.476 272.604 464.27 272.604 464.27V454.161L254.084 455.008Z" fill="#090814"/>
<path d="M270.649 117.497C272.001 117.406 272.903 115.932 273.277 114.53C273.651 113.128 273.746 111.591 274.51 110.386C276.603 107.086 282.045 108.418 284.255 105.206C285.614 103.23 285.33 100.014 287.292 98.7575C288.531 97.9635 290.111 98.3725 291.476 98.8715C296.767 100.819 301.653 103.729 305.886 107.453L307.644 106.022L309.844 110.412C310.695 109.385 312.337 110.181 313.052 111.323C313.767 112.465 314.113 113.923 315.132 114.754C316.756 116.079 319.292 114.954 320.276 113.035C321.26 111.116 321.097 108.765 320.756 106.602C319.906 101.184 318.096 95.9601 315.411 91.1775L317.42 89.9725L314.82 89.6015L315.814 87.3465L313.093 87.3145L314.166 85.3865C310.508 86.6415 306.729 84.3425 303.235 82.6285C297.464 79.6426 290.906 78.5317 284.474 79.4505C281.223 79.9783 278.118 81.1774 275.356 82.9714C272.594 84.7654 270.237 87.115 268.433 89.8705C265.667 94.2195 264.069 100.535 265.452 105.743C266.709 110.478 272.197 111.215 270.649 117.497Z" fill="#090814"/>
<path d="M216.198 150.236C216.198 150.236 211.146 149.394 207.779 156.129C204.412 162.864 179.154 216.747 191.779 233.585C204.404 250.423 216.195 255.475 216.195 255.475L218.721 256.317L231.357 242.845L227.147 236.952C227.147 236.952 227.147 231.059 223.779 230.217C220.411 229.375 220.411 231.901 219.569 228.533C218.727 225.165 222.937 227.691 218.727 224.323C214.517 220.955 217.885 219.271 217.885 219.271L216.198 150.236Z" fill="#0F9E99"/>
<path d="M305.441 262.63L304.599 269.365L292.812 255.053H297.022L305.441 262.63Z" fill="#FFB9B9"/>
<path d="M304.177 168.336C304.177 168.336 315.964 162.443 319.331 169.178C322.698 175.913 345.851 226.428 333.223 243.267C320.595 260.106 308.807 265.157 308.807 265.157L306.281 265.999L293.652 252.528L297.862 246.635C297.862 246.635 297.862 240.742 301.23 239.9C304.598 239.058 304.598 241.584 305.44 238.216C306.282 234.848 302.072 237.374 306.282 234.006C310.492 230.638 307.124 228.954 307.124 228.954L304.177 168.336Z" fill="#0F9E99"/>
<path opacity="0.2" d="M224.195 183.489L214.934 220.533L225.879 234.004L220.827 217.166L224.195 183.489Z" fill="black"/>
<path opacity="0.2" d="M269.372 118.299L262.645 129.522C258.419 128.057 258.065 118.249 258.309 111.783C263.31 111.741 269.372 118.299 269.372 118.299Z" fill="black"/>
<path d="M550.419 332.751C550.419 332.751 559.406 347.005 556.197 350.865C552.988 354.725 580.278 354.821 580.278 354.821C580.278 354.821 576.178 334.085 577.385 329.313L550.419 332.751Z" fill="#FFB9B9"/>
<path d="M564.784 337.919C580.349 337.919 592.966 325.301 592.966 309.737C592.966 294.172 580.349 281.555 564.784 281.555C549.22 281.555 536.602 294.172 536.602 309.737C536.602 325.301 549.22 337.919 564.784 337.919Z" fill="#090814"/>
<path d="M631.067 462.487V479.194L647.773 475.713L646.381 463.88L631.067 462.487Z" fill="#FFB9B9"/>
<path d="M690.236 465.272L736.875 472.929L725.041 490.334C725.041 490.334 692.324 479.194 683.971 479.194C675.618 479.194 690.236 465.272 690.236 465.272Z" fill="#FFB9B9"/>
<path d="M584.427 431.858C584.427 431.858 619.233 391.484 630.37 393.572C641.507 395.66 646.381 408.19 646.381 408.19L652.646 470.144C652.646 470.144 630.37 472.232 630.37 470.144C630.37 468.056 626.193 423.505 626.193 423.505C626.193 423.505 593.476 495.905 576.073 447.869L584.427 431.858Z" fill="#D6D6E3"/>
<path d="M528.042 459.006C528.042 459.006 528.742 495.475 549.621 497.563C570.5 499.651 593.476 481.977 593.476 481.977L631.066 463.969C631.066 463.969 675.617 487.546 688.843 481.281C688.843 481.281 702.765 466.663 693.716 462.486C684.667 458.309 693.016 462.486 693.016 462.486L639.416 434.642C639.416 434.642 628.974 431.858 610.876 439.515C592.778 447.172 568.413 450.653 568.413 450.653L528.042 459.006Z" fill="#D6D6E3"/>
<path d="M562.847 339.971C574.38 339.971 583.73 330.621 583.73 319.088C583.73 307.555 574.38 298.205 562.847 298.205C551.314 298.205 541.964 307.555 541.964 319.088C541.964 330.621 551.314 339.971 562.847 339.971Z" fill="#FFB9B9"/>
<path d="M592.78 377.561L591.388 406.798C591.388 406.798 592.088 445.084 585.819 447.868C582.652 449.274 576.289 452.1 570.407 455.191C565.994 457.502 561.852 459.952 559.541 462.062C558.928 462.583 558.4 463.196 557.975 463.879C555.191 468.752 537.092 468.056 532.915 464.579C528.738 461.102 531.523 468.756 528.042 470.148C524.673 471.498 520.002 460.458 522.863 443.974C522.954 443.424 523.058 442.867 523.169 442.303C526.369 426.327 521.345 388.062 522.118 373.277C522.163 372.148 522.281 371.022 522.473 369.908C524.561 358.77 551.208 336.108 556.193 345.76C562.333 357.677 576.436 346.79 578.858 341.368C592.78 340.668 597.653 357.378 597.653 357.378L592.78 377.561Z" fill="#0F9E99"/>
<path d="M649.164 472.93C649.164 472.93 638.026 477.107 634.546 476.41C631.066 475.713 627.585 478.498 627.585 482.675C627.585 486.852 623.408 496.597 629.673 497.293C635.938 497.989 661.694 496.593 667.263 498.685C667.263 498.685 692.323 499.385 690.235 488.94C688.147 478.495 677.705 479.194 677.705 479.194C677.705 479.194 649.164 477.803 649.164 472.93Z" fill="#090814"/>
<path d="M730.61 475.017C730.61 475.017 732.002 470.84 734.091 470.84C736.18 470.84 752.886 473.624 754.974 472.928C757.062 472.232 781.426 470.84 777.25 482.673C773.074 494.506 759.15 495.899 759.15 495.899C759.15 495.899 734.09 493.115 730.609 493.811C727.128 494.507 714.598 493.811 716.687 490.33C718.776 486.849 732.002 480.586 730.61 475.017Z" fill="#090814"/>
<path d="M667.249 375.032L671.068 390.785C671.111 390.96 671.104 391.144 671.049 391.317L653.723 445.452C653.655 445.666 653.515 445.851 653.326 445.974C653.138 446.098 652.913 446.153 652.689 446.131C652.465 446.109 652.256 446.011 652.095 445.853C651.935 445.695 651.834 445.486 651.808 445.263L649.408 424.174C649.392 424.034 649.407 423.892 649.45 423.758L665.35 374.958C665.417 374.754 665.547 374.578 665.723 374.455C665.899 374.333 666.11 374.271 666.324 374.279C666.538 374.287 666.743 374.365 666.909 374.501C667.075 374.636 667.192 374.822 667.242 375.031L667.249 375.032Z" fill="#080712"/>
<path d="M665.841 376.361L669.367 389.877L654.087 439.24L650.561 423.961L665.841 376.361Z" fill="white"/>
<path d="M588.857 449.818C589.445 451.581 649.974 449.23 650.557 448.643C651.07 447.907 651.503 447.119 651.85 446.292C652.402 445.117 652.908 443.941 652.908 443.941L650.557 424.913L590.616 422.786C590.616 422.786 589.116 438.911 588.816 446.292C588.712 447.466 588.726 448.647 588.857 449.818Z" fill="#090814"/>
<path opacity="0.1" d="M642.922 427.487L644.097 443.942H617.653V427.487H642.922Z" fill="black"/>
<path opacity="0.1" d="M608.84 432.777L608.998 432.745L608.252 439.828H593.559V432.777H608.84Z" fill="black"/>
<path opacity="0.1" d="M588.857 449.818C589.445 451.581 649.974 449.23 650.557 448.643C651.069 447.907 651.503 447.119 651.85 446.292H588.812C588.709 447.466 588.724 448.647 588.857 449.818Z" fill="black"/>
<path d="M569.453 286.781C573.791 286.781 577.307 283.265 577.307 278.927C577.307 274.59 573.791 271.073 569.453 271.073C565.115 271.073 561.599 274.59 561.599 278.927C561.599 283.265 565.115 286.781 569.453 286.781Z" fill="#090814"/>
<path d="M567.09 287.478C567.09 287.478 559.066 300.825 540.407 305.822C521.748 310.819 540.255 338.858 540.255 338.858C540.255 338.858 533.525 328.658 543.232 317.864C552.939 307.07 568.558 299.683 567.09 287.478Z" fill="#090814"/>
<path opacity="0.1" d="M570.408 455.192C568.689 458.443 566.67 461.819 566.329 463.183C566.099 464.109 563.552 463.573 559.542 462.062C551.502 459.02 537.566 452.052 524.562 445.084C523.962 444.766 523.393 444.393 522.862 443.97C522.953 443.42 523.057 442.863 523.168 442.299C526.368 426.323 521.344 388.058 522.117 373.273L528.041 371.296L539.876 382.434V429.769C539.876 429.769 570.505 446.476 572.593 447.869C573.659 448.579 572.19 451.816 570.408 455.192Z" fill="black"/>
<path d="M596.26 417.24L615.055 426.986C615.055 426.986 626.193 415.152 633.155 424.202C640.117 433.252 612.968 436.036 612.968 436.036C612.968 436.036 589.3 430.467 588.604 422.81C587.908 415.153 596.26 417.24 596.26 417.24Z" fill="#FFB9B9"/>
<path d="M564.936 442.992L576.074 445.776C576.074 445.776 588.604 430.462 601.83 436.031C615.056 441.6 585.12 452.742 585.12 452.742C585.12 452.742 569.109 461.095 562.844 454.134C556.579 447.173 564.936 442.992 564.936 442.992Z" fill="#FFB9B9"/>
<path d="M589.299 351.11C589.999 351.81 597.652 357.375 597.652 357.375C597.652 357.375 599.74 383.827 596.952 389.396C594.164 394.965 592.079 394.965 594.168 397.749C596.257 400.533 599.041 398.449 596.256 403.318C593.471 408.187 590.687 407.495 592.775 409.583C594.863 411.671 594.167 412.367 594.167 412.367L602.52 419.328C602.52 419.328 597.395 427.491 590.908 426.89C584.421 426.289 578.852 394.964 578.852 394.964L589.299 351.11Z" fill="#0F9E99"/>
<path d="M528.042 367.816L521.777 369.904C521.777 369.904 505.07 431.162 524.561 441.604C544.052 452.046 565.631 462.487 566.328 459.704C567.025 456.921 574.681 445.782 572.593 444.39C570.505 442.998 539.876 426.29 539.876 426.29V378.954L528.042 367.816Z" fill="#0F9E99"/>
<path opacity="0.1" d="M537.44 393.225L536.048 426.64L572.942 444.04L538.832 426.64L537.44 393.225Z" fill="black"/>
<path d="M747.092 261.28V276.825C747.092 276.969 747.035 277.107 746.933 277.208C746.832 277.31 746.694 277.367 746.55 277.367H746.168V358.346C746.168 360.587 745.278 362.736 743.693 364.32C742.109 365.905 739.96 366.795 737.719 366.795H687.119C686.01 366.795 684.911 366.576 683.886 366.152C682.862 365.727 681.93 365.105 681.146 364.32C680.361 363.536 679.739 362.604 679.315 361.579C678.891 360.554 678.672 359.456 678.672 358.346V280.203H678.393C678.292 280.203 678.195 280.163 678.123 280.092C678.051 280.02 678.011 279.923 678.01 279.822V270.98C678.01 270.879 678.051 270.781 678.122 270.709C678.194 270.638 678.292 270.597 678.393 270.597H678.672V267.265H678.39C678.284 267.265 678.182 267.223 678.107 267.148C678.032 267.073 677.99 266.971 677.99 266.865V258.139C677.99 258.033 678.032 257.931 678.107 257.856C678.182 257.781 678.284 257.739 678.39 257.739H678.672V253.18H678.386C678.292 253.18 678.202 253.143 678.135 253.076C678.069 253.01 678.031 252.919 678.031 252.825V248.063C678.031 247.969 678.069 247.878 678.135 247.811C678.202 247.745 678.292 247.707 678.386 247.706H678.672V238.064C678.672 235.824 679.562 233.675 681.146 232.091C682.73 230.507 684.879 229.617 687.119 229.617H737.719C739.96 229.617 742.108 230.507 743.693 232.091C745.277 233.675 746.168 235.824 746.168 238.064V260.733H746.554C746.698 260.733 746.836 260.791 746.937 260.892C747.039 260.994 747.096 261.132 747.096 261.275L747.092 261.28Z" fill="#090814"/>
<path d="M714.498 233.479H706.987C706.459 233.479 706.03 233.907 706.03 234.436C706.03 234.964 706.459 235.393 706.987 235.393H714.498C715.027 235.393 715.455 234.964 715.455 234.436C715.455 233.907 715.027 233.479 714.498 233.479Z" fill="#E6E8EC"/>
<path d="M717.966 235.522C718.566 235.522 719.052 235.035 719.052 234.436C719.052 233.836 718.566 233.35 717.966 233.35C717.367 233.35 716.88 233.836 716.88 234.436C716.88 235.035 717.367 235.522 717.966 235.522Z" fill="#E6E8EC"/>
<path d="M743.891 237.606V358.962C743.86 360.437 743.243 361.84 742.178 362.862C741.113 363.884 739.685 364.441 738.209 364.412H686.871C685.376 364.419 683.936 363.848 682.851 362.819C682.328 362.322 681.911 361.723 681.625 361.061C681.339 360.398 681.191 359.683 681.189 358.962V237.606C681.22 236.129 681.836 234.725 682.902 233.703C683.967 232.68 685.395 232.123 686.871 232.153H694.554V233.099C694.58 234.314 695.087 235.47 695.964 236.312C696.841 237.154 698.017 237.613 699.232 237.589H725.342C726.558 237.613 727.734 237.154 728.611 236.312C729.489 235.47 729.996 234.314 730.021 233.099V232.153H738.209C739.686 232.122 741.114 232.68 742.18 233.702C743.245 234.725 743.861 236.129 743.891 237.606Z" fill="white"/>
<path d="M689.918 312.919H735.36C735.609 312.919 735.855 312.968 736.085 313.063C736.314 313.158 736.523 313.298 736.699 313.473C736.875 313.649 737.014 313.858 737.109 314.088C737.204 314.317 737.253 314.563 737.253 314.812V317.419C737.253 317.92 737.053 318.401 736.698 318.756C736.343 319.11 735.862 319.309 735.36 319.309H689.918C689.417 319.309 688.936 319.11 688.581 318.756C688.226 318.401 688.026 317.92 688.025 317.419V314.819C688.024 314.57 688.073 314.323 688.167 314.092C688.262 313.862 688.401 313.652 688.577 313.476C688.753 313.299 688.962 313.159 689.192 313.064C689.422 312.968 689.669 312.919 689.918 312.919Z" fill="#E6E6E6"/>
<path d="M689.918 324.279H735.36C735.609 324.279 735.855 324.328 736.085 324.423C736.314 324.519 736.523 324.658 736.699 324.834C736.875 325.01 737.014 325.218 737.109 325.448C737.204 325.678 737.253 325.924 737.253 326.172V328.779C737.253 329.281 737.053 329.762 736.698 330.116C736.343 330.47 735.862 330.669 735.36 330.669H689.918C689.417 330.669 688.936 330.47 688.581 330.116C688.226 329.762 688.026 329.281 688.025 328.779V326.179C688.024 325.93 688.073 325.683 688.167 325.453C688.262 325.222 688.401 325.013 688.577 324.836C688.753 324.66 688.962 324.52 689.192 324.424C689.422 324.328 689.669 324.279 689.918 324.279Z" fill="#E6E6E6"/>
<path d="M689.918 335.641H735.36C735.609 335.641 735.855 335.69 736.085 335.785C736.314 335.88 736.523 336.019 736.699 336.195C736.875 336.371 737.014 336.58 737.109 336.809C737.204 337.039 737.253 337.285 737.253 337.534V340.141C737.253 340.642 737.053 341.123 736.698 341.477C736.343 341.832 735.862 342.031 735.36 342.031H689.918C689.417 342.031 688.936 341.832 688.581 341.477C688.226 341.123 688.026 340.642 688.025 340.141V337.541C688.024 337.291 688.073 337.045 688.167 336.814C688.262 336.584 688.401 336.374 688.577 336.198C688.753 336.021 688.962 335.881 689.192 335.785C689.422 335.69 689.669 335.641 689.918 335.641Z" fill="#E6E6E6"/>
<path d="M731.81 255.881C734.425 255.881 736.544 253.762 736.544 251.147C736.544 248.533 734.425 246.413 731.81 246.413C729.196 246.413 727.076 248.533 727.076 251.147C727.076 253.762 729.196 255.881 731.81 255.881Z" fill="#0F9E99"/>
<path d="M689.819 267.004H735.261C735.51 267.004 735.756 267.053 735.986 267.148C736.215 267.243 736.424 267.383 736.6 267.558C736.776 267.734 736.915 267.943 737.01 268.172C737.105 268.402 737.154 268.648 737.154 268.897V297.772C737.154 298.02 737.105 298.267 737.01 298.496C736.915 298.726 736.776 298.935 736.6 299.11C736.424 299.286 736.215 299.426 735.986 299.521C735.756 299.616 735.51 299.665 735.261 299.665H689.819C689.317 299.665 688.836 299.465 688.481 299.11C688.126 298.755 687.926 298.274 687.926 297.772V268.897C687.926 268.395 688.126 267.913 688.481 267.558C688.836 267.203 689.317 267.004 689.819 267.004Z" fill="#E6E6E6"/>
<path d="M706.002 285.367C707.439 290.68 712.363 293.967 712.363 293.967C712.363 293.967 714.956 288.643 713.519 283.33C712.082 278.017 707.158 274.73 707.158 274.73C707.158 274.73 704.567 280.054 706.002 285.367Z" fill="#090814"/>
<path d="M708.114 284.226C712.058 288.065 712.54 293.968 712.54 293.968C712.54 293.968 706.627 293.645 702.683 289.806C698.739 285.967 698.257 280.064 698.257 280.064C698.257 280.064 704.17 280.387 708.114 284.226Z" fill="#0F9E99"/>
<path d="M719.078 285.367C717.641 290.68 712.717 293.967 712.717 293.967C712.717 293.967 710.124 288.643 711.561 283.33C712.998 278.017 717.922 274.73 717.922 274.73C717.922 274.73 720.516 280.054 719.078 285.367Z" fill="#090814"/>
<path d="M716.966 284.226C713.022 288.065 712.54 293.968 712.54 293.968C712.54 293.968 718.453 293.645 722.397 289.806C726.341 285.967 726.823 280.064 726.823 280.064C726.823 280.064 720.91 280.387 716.966 284.226Z" fill="#0F9E99"/>
<path d="M845 497.598H481V499.839H845V497.598Z" fill="#CCCCCC"/>
<path d="M1181.25 492.592H932.648C932.288 492.592 931.996 492.15 931.996 491.605C931.996 491.06 932.288 490.618 932.648 490.618H1181.25C1181.61 490.618 1181.9 491.06 1181.9 491.605C1181.9 492.15 1181.61 492.592 1181.25 492.592Z" fill="#F2F2F2"/>
<path d="M1001.7 157.345C1002.05 157.453 1002.43 157.434 1002.77 157.294C1003.11 157.153 1003.39 156.898 1003.57 156.573C1005.07 154.206 1002.3 151.153 1002.9 148.414C1003.38 146.22 1005.88 144.914 1006.39 142.729C1006.89 140.603 1005.36 138.207 1006.39 136.284C1007.19 134.777 1009.21 134.384 1010.9 134.645C1012.59 134.906 1014.2 135.652 1015.9 135.756C1018.18 135.895 1020.35 134.893 1022.57 134.397C1024.79 133.901 1027.51 134.097 1028.81 135.961C1030.49 138.361 1028.79 141.692 1029.38 144.561C1029.84 146.837 1031.75 148.722 1031.79 151.045C1031.8 151.871 1029.63 151.206 1029.75 152.023C1029.86 152.84 1028.84 152.123 1029.66 152.023C1029.99 151.941 1030.29 151.755 1030.51 151.491C1030.73 151.227 1030.87 150.899 1030.89 150.555C1030.99 149.874 1032.27 149.647 1032.25 148.955C1032.22 147.343 1035.13 148.43 1035.61 146.891C1036.72 143.303 1036.49 139.437 1034.97 136.002C1034.19 134.599 1033.57 133.114 1033.12 131.574C1032.69 129.437 1033.36 127.142 1032.65 125.08C1031.7 122.301 1028.55 120.88 1025.63 120.596C1022.71 120.312 1019.74 120.823 1016.83 120.396C1014.23 120.016 1011.71 118.887 1009.08 119.051C1005.93 119.251 1003.19 121.278 1001 123.558C998.817 125.838 996.963 128.458 994.482 130.413C993.723 130.936 993.022 131.54 992.392 132.213C991.824 133.034 991.438 133.966 991.258 134.948C991.079 135.93 991.111 136.939 991.352 137.907C991.704 139.868 992.468 141.738 992.791 143.707C993.091 145.554 993.001 147.442 993.132 149.307C993.163 151.191 993.733 153.026 994.775 154.595C995.226 155.207 995.81 155.707 996.483 156.059C997.156 156.41 997.9 156.604 998.659 156.624C999.185 156.636 999.629 156.164 1000.16 156.287C1000.82 156.445 1001.11 157.075 1001.7 157.345Z" fill="#2F2E41"/>
<path d="M979.205 293.061L981.154 305.035L985.054 299.744L982.826 291.669L979.205 293.061Z" fill="#9F616A"/>
<path d="M981.712 202.562L978.643 210.65C978.643 210.65 975.586 251.85 975.586 254.912C975.586 257.974 977.814 297.238 978.649 298.912C978.649 298.912 982.269 293.621 987.003 294.457C991.737 295.293 989.788 280.534 989.788 280.534L994.243 244.056L993.408 225.678L981.712 202.562Z" fill="#0F9E99"/>
<path opacity="0.1" d="M981.712 202.562L978.643 210.65C978.643 210.65 975.586 251.85 975.586 254.912C975.586 257.974 977.814 297.238 978.649 298.912C978.649 298.912 982.269 293.621 987.003 294.457C991.737 295.293 989.788 280.534 989.788 280.534L994.243 244.056L993.408 225.678L981.712 202.562Z" fill="#090814"/>
<path d="M1000.65 158.009C1000.65 158.009 1009.83 181.4 1004.54 185.855C999.256 190.31 1034.06 178.337 1034.06 178.337L1033.23 175.274C1033.23 175.274 1021.81 170.819 1027.38 158.01C1032.95 145.201 1000.65 158.009 1000.65 158.009Z" fill="#9F616A"/>
<path opacity="0.1" d="M1000.65 158.009C1000.65 158.009 1009.83 181.4 1004.54 185.855C999.256 190.31 1034.06 178.337 1034.06 178.337L1033.23 175.274C1033.23 175.274 1021.81 170.819 1027.38 158.01C1032.95 145.201 1000.65 158.009 1000.65 158.009Z" fill="black"/>
<path d="M986.168 470.439C986.168 470.439 982.268 469.325 980.042 472.11C977.816 474.895 969.461 481.856 969.461 481.856C969.461 481.856 953.31 480.185 951.083 488.256C948.856 496.327 976.423 496.331 983.106 494.382C989.789 492.433 991.181 494.382 991.181 494.382C991.181 494.382 1011.79 496.053 1011.79 492.711C1011.79 489.369 1009.84 477.953 1009.84 477.953L986.168 470.439Z" fill="#090814"/>
<path d="M1051.61 489.096L1047.99 500.234C1047.99 500.234 1037.13 515.271 1043.25 518.334C1049.38 521.397 1071.1 524.46 1071.1 516.385V501.069C1071.1 501.069 1068.87 490.209 1066.64 489.095C1064.42 487.981 1051.61 489.096 1051.61 489.096Z" fill="#090814"/>
<path d="M990.111 288.986C990.111 288.986 978.371 299.186 978.649 300.579C978.927 301.972 984.497 391.357 984.497 391.357L987.56 449.276C987.56 449.276 983.66 462.92 985.611 465.983C987.562 469.046 982.826 469.883 982.826 469.883C982.826 469.883 1002.88 487.983 1011.23 480.183L1019.03 379.102L1040.47 452.618C1040.47 452.618 1044.09 491.602 1048.27 491.602C1052.45 491.602 1069.43 492.437 1069.15 490.21C1068.87 487.983 1069.99 470.996 1068.04 460.972C1066.09 450.948 1053 371.587 1053 371.587C1053 371.587 1051.88 303.552 1054.8 297.193C1057.73 290.834 1053.28 284.151 1053.28 284.151L1033.78 276.633L1010.39 279.418L990.111 288.986Z" fill="#090814"/>
<path d="M1013.74 128.492C1017.59 128.492 1021.36 129.635 1024.56 131.777C1027.77 133.919 1030.27 136.963 1031.74 140.525C1033.22 144.087 1033.6 148.006 1032.85 151.787C1032.1 155.568 1030.24 159.041 1027.52 161.767C1024.79 164.493 1021.32 166.35 1017.54 167.102C1013.76 167.854 1009.84 167.468 1006.28 165.992C1002.71 164.517 999.67 162.019 997.528 158.813C995.386 155.608 994.243 151.839 994.243 147.984C994.243 142.815 996.297 137.857 999.952 134.201C1003.61 130.546 1008.57 128.492 1013.74 128.492Z" fill="#9F616A"/>
<path d="M1061.07 190.031C1060.11 187.307 1058.49 184.864 1056.35 182.92C1054.21 180.976 1051.62 179.593 1048.82 178.893C1043.2 177.48 1037.71 175.618 1032.39 173.324C1032.39 173.324 1012.62 182.792 1008.72 182.792C1004.83 182.792 1004.82 180.286 1004.82 180.286C1004.82 180.286 994.799 190.867 989.508 191.986C984.217 193.105 976.42 206.186 979.208 213.427C981.099 218.069 983.837 222.318 987.283 225.958C987.283 225.958 986.169 264.942 989.789 272.182C989.789 272.182 980.878 289.168 989.232 290.282C997.586 291.396 1029.61 287.497 1035.18 291.396C1040.75 295.295 1051.05 290.561 1052.44 295.851C1053.83 301.141 1056.9 302.251 1056.9 302.251C1056.9 302.251 1061.63 294.733 1058.85 290.277C1056.06 285.821 1061.07 190.031 1061.07 190.031Z" fill="#0F9E99"/>
<path d="M1040.47 294.732L1036.01 297.517C1036.01 297.517 1040.75 313.946 1042.69 314.503C1044.64 315.06 1049.23 300.455 1049.23 300.455L1040.47 294.732Z" fill="#9F616A"/>
<path d="M998.357 155.397C998.71 155.503 999.088 155.484 999.429 155.344C999.77 155.203 1000.05 154.949 1000.23 154.625C1001.73 152.258 998.962 149.205 999.561 146.466C1000.04 144.272 1002.53 142.966 1003.04 140.781C1003.54 138.655 1002.01 136.259 1003.04 134.336C1003.85 132.829 1005.87 132.436 1007.56 132.697C1009.25 132.958 1010.85 133.704 1012.56 133.808C1014.84 133.947 1017 132.945 1019.23 132.449C1021.45 131.953 1024.16 132.149 1025.47 134.013C1027.15 136.413 1025.45 139.744 1026.03 142.613C1026.5 144.889 1031.79 146.487 1032.27 144.948C1033.37 141.36 1033.15 137.494 1031.63 134.059C1030.85 132.656 1030.23 131.171 1029.77 129.631C1029.34 127.494 1030.02 125.199 1029.31 123.137C1028.36 120.358 1025.21 118.937 1022.29 118.653C1019.36 118.369 1016.39 118.88 1013.49 118.453C1010.89 118.073 1008.36 116.944 1005.74 117.108C1002.58 117.308 999.842 119.335 997.657 121.615C995.472 123.895 993.619 126.515 991.138 128.47C990.378 128.993 989.678 129.596 989.048 130.27C988.479 131.09 988.092 132.023 987.912 133.004C987.732 133.986 987.763 134.995 988.004 135.964C988.356 137.925 989.121 139.795 989.444 141.764C989.744 143.611 989.654 145.499 989.785 147.364C989.816 149.247 990.386 151.083 991.428 152.652C991.878 153.263 992.462 153.764 993.135 154.115C993.808 154.467 994.552 154.66 995.311 154.681C995.837 154.693 996.281 154.221 996.811 154.344C997.479 154.497 997.768 155.127 998.357 155.397Z" fill="#090814"/>
<path opacity="0.1" d="M1050.07 194.904L1059.12 190.031C1059.12 190.031 1081.12 242.381 1075.83 256.861C1070.54 271.341 1050.21 301.136 1050.21 301.136C1050.21 301.136 1034.06 297.795 1035.73 294.453C1037.41 291.111 1048.27 269.67 1049.1 266.886C1049.94 264.102 1055.5 246.002 1053 244.052C1050.5 242.102 1045.62 196.852 1045.62 196.852L1050.07 194.904Z" fill="black"/>
<path d="M1049.93 186.968L1061.07 190.031C1061.07 190.031 1083.07 242.381 1077.78 256.861C1072.49 271.341 1052.16 301.136 1052.16 301.136C1052.16 301.136 1036.01 297.795 1037.68 294.453C1039.35 291.111 1050.21 269.67 1051.05 266.886C1051.88 264.102 1057.45 246.002 1054.95 244.052C1052.45 242.102 1040.47 193.929 1040.47 193.929L1049.93 186.968Z" fill="#0F9E99"/>
<path d="M1130.68 90.6204C1130.68 70.3394 1160.41 53.8994 1197.1 53.8994C1233.78 53.8994 1263.52 70.3404 1263.52 90.6204" stroke="#3F3D56" stroke-width="2" stroke-miterlimit="10"/>
<path d="M1217.98 68.037H1163.94C1153.26 50.0243 1153.26 32.012 1163.94 14H1217.98C1203.04 32.0127 1203.04 50.025 1217.98 68.037Z" fill="#E6E6E6"/>
<path d="M1202.11 20.4326H1171.66V24.2926H1202.11V20.4326Z" fill="#0F9E99"/>
<path d="M1263.52 90.6191C1263.52 111.882 1233.78 129.119 1197.1 129.119C1160.41 129.119 1130.68 111.882 1130.68 90.6191" stroke="#3F3D56" stroke-width="2" stroke-miterlimit="10"/>
<path d="M1251.44 129.666C1236.59 137.673 1217.22 142.519 1196.02 142.519C1175.71 142.519 1157.06 138.065 1142.47 130.64" stroke="#3F3D56" stroke-width="2" stroke-miterlimit="10"/>
<path d="M1230.27 43.958C1258.52 51.385 1278.64 67.72 1280.52 86.958" stroke="#3F3D56" stroke-width="2" stroke-miterlimit="10"/>
<path d="M1115.47 74.4549C1120.23 65.7049 1128.93 58.0039 1140.32 52.0879" stroke="#3F3D56" stroke-width="2" stroke-miterlimit="10"/>
<path d="M1173.88 168.121H1227.92C1238.61 150.108 1238.61 132.096 1227.92 114.084H1173.88C1188.83 132.097 1188.83 150.109 1173.88 168.121Z" fill="#E6E6E6"/>
<path d="M1222.21 124.377H1191.76V128.237H1222.21V124.377Z" fill="#0F9E99"/>
<path d="M1150.98 131.444H1096.94C1086.25 113.432 1086.25 95.4192 1096.94 77.4072H1150.98C1136.03 95.4192 1136.03 113.432 1150.98 131.444Z" fill="#E6E6E6"/>
<path d="M1133.39 83.8398H1102.94V87.6998H1133.39V83.8398Z" fill="#0F9E99"/>
<path d="M1239.32 106.553H1293.36C1304.05 88.54 1304.05 70.5276 1293.36 52.5156H1239.32C1254.26 70.5276 1254.26 88.54 1239.32 106.553Z" fill="#E6E6E6"/>
<path d="M1287 57.876H1256.55V61.736H1287V57.876Z" fill="#0F9E99"/>
</g>
<defs>
<clipPath id="clip0_667_146">
<rect width="1301.37" height="521.546" fill="white"/>
</clipPath>
</defs>
</svg>
